G04 #@! TF.GenerationSoftware,KiCad,Pcbnew,5.0.0+dfsg1-2*
G04 #@! TF.CreationDate,2018-11-18T20:59:02-06:00*
G04 #@! TF.ProjectId,dimmer-2ch,64696D6D65722D3263682E6B69636164,rev?*
G04 #@! TF.SameCoordinates,Original*
G04 #@! TF.FileFunction,Soldermask,Top*
G04 #@! TF.FilePolarity,Negative*
%FSLAX46Y46*%
G04 Gerber Fmt 4.6, Leading zero omitted, Abs format (unit mm)*
G04 Created by KiCad (PCBNEW 5.0.0+dfsg1-2) date Sun Nov 18 20:59:02 2018*
%MOMM*%
%LPD*%
G01*
G04 APERTURE LIST*
%ADD10C,0.100000*%
G04 APERTURE END LIST*
D10*
G36*
X161904000Y-121275000D02*
X152402000Y-121275000D01*
X152402000Y-110373000D01*
X161904000Y-110373000D01*
X161904000Y-121275000D01*
X161904000Y-121275000D01*
G37*
G36*
X148863499Y-118477445D02*
X148900993Y-118488819D01*
X148935557Y-118507294D01*
X148965847Y-118532153D01*
X148990706Y-118562443D01*
X149009181Y-118597007D01*
X149020555Y-118634501D01*
X149025000Y-118679638D01*
X149025000Y-119318362D01*
X149020555Y-119363499D01*
X149009181Y-119400993D01*
X148990706Y-119435557D01*
X148965847Y-119465847D01*
X148935557Y-119490706D01*
X148900993Y-119509181D01*
X148863499Y-119520555D01*
X148818362Y-119525000D01*
X148079638Y-119525000D01*
X148034501Y-119520555D01*
X147997007Y-119509181D01*
X147962443Y-119490706D01*
X147932153Y-119465847D01*
X147907294Y-119435557D01*
X147888819Y-119400993D01*
X147877445Y-119363499D01*
X147873000Y-119318362D01*
X147873000Y-118679638D01*
X147877445Y-118634501D01*
X147888819Y-118597007D01*
X147907294Y-118562443D01*
X147932153Y-118532153D01*
X147962443Y-118507294D01*
X147997007Y-118488819D01*
X148034501Y-118477445D01*
X148079638Y-118473000D01*
X148818362Y-118473000D01*
X148863499Y-118477445D01*
X148863499Y-118477445D01*
G37*
G36*
X147113499Y-118477445D02*
X147150993Y-118488819D01*
X147185557Y-118507294D01*
X147215847Y-118532153D01*
X147240706Y-118562443D01*
X147259181Y-118597007D01*
X147270555Y-118634501D01*
X147275000Y-118679638D01*
X147275000Y-119318362D01*
X147270555Y-119363499D01*
X147259181Y-119400993D01*
X147240706Y-119435557D01*
X147215847Y-119465847D01*
X147185557Y-119490706D01*
X147150993Y-119509181D01*
X147113499Y-119520555D01*
X147068362Y-119525000D01*
X146329638Y-119525000D01*
X146284501Y-119520555D01*
X146247007Y-119509181D01*
X146212443Y-119490706D01*
X146182153Y-119465847D01*
X146157294Y-119435557D01*
X146138819Y-119400993D01*
X146127445Y-119363499D01*
X146123000Y-119318362D01*
X146123000Y-118679638D01*
X146127445Y-118634501D01*
X146138819Y-118597007D01*
X146157294Y-118562443D01*
X146182153Y-118532153D01*
X146212443Y-118507294D01*
X146247007Y-118488819D01*
X146284501Y-118477445D01*
X146329638Y-118473000D01*
X147068362Y-118473000D01*
X147113499Y-118477445D01*
X147113499Y-118477445D01*
G37*
G36*
X168654000Y-118965000D02*
X163952000Y-118965000D01*
X163952000Y-117763000D01*
X168654000Y-117763000D01*
X168654000Y-118965000D01*
X168654000Y-118965000D01*
G37*
G36*
X130412999Y-116572445D02*
X130450493Y-116583819D01*
X130485057Y-116602294D01*
X130515347Y-116627153D01*
X130540206Y-116657443D01*
X130558681Y-116692007D01*
X130570055Y-116729501D01*
X130574500Y-116774638D01*
X130574500Y-117413362D01*
X130570055Y-117458499D01*
X130558681Y-117495993D01*
X130540206Y-117530557D01*
X130515347Y-117560847D01*
X130485057Y-117585706D01*
X130450493Y-117604181D01*
X130412999Y-117615555D01*
X130367862Y-117620000D01*
X129629138Y-117620000D01*
X129584001Y-117615555D01*
X129546507Y-117604181D01*
X129511943Y-117585706D01*
X129481653Y-117560847D01*
X129456794Y-117530557D01*
X129438319Y-117495993D01*
X129426945Y-117458499D01*
X129422500Y-117413362D01*
X129422500Y-116774638D01*
X129426945Y-116729501D01*
X129438319Y-116692007D01*
X129456794Y-116657443D01*
X129481653Y-116627153D01*
X129511943Y-116602294D01*
X129546507Y-116583819D01*
X129584001Y-116572445D01*
X129629138Y-116568000D01*
X130367862Y-116568000D01*
X130412999Y-116572445D01*
X130412999Y-116572445D01*
G37*
G36*
X132162999Y-116572445D02*
X132200493Y-116583819D01*
X132235057Y-116602294D01*
X132265347Y-116627153D01*
X132290206Y-116657443D01*
X132308681Y-116692007D01*
X132320055Y-116729501D01*
X132324500Y-116774638D01*
X132324500Y-117413362D01*
X132320055Y-117458499D01*
X132308681Y-117495993D01*
X132290206Y-117530557D01*
X132265347Y-117560847D01*
X132235057Y-117585706D01*
X132200493Y-117604181D01*
X132162999Y-117615555D01*
X132117862Y-117620000D01*
X131379138Y-117620000D01*
X131334001Y-117615555D01*
X131296507Y-117604181D01*
X131261943Y-117585706D01*
X131231653Y-117560847D01*
X131206794Y-117530557D01*
X131188319Y-117495993D01*
X131176945Y-117458499D01*
X131172500Y-117413362D01*
X131172500Y-116774638D01*
X131176945Y-116729501D01*
X131188319Y-116692007D01*
X131206794Y-116657443D01*
X131231653Y-116627153D01*
X131261943Y-116602294D01*
X131296507Y-116583819D01*
X131334001Y-116572445D01*
X131379138Y-116568000D01*
X132117862Y-116568000D01*
X132162999Y-116572445D01*
X132162999Y-116572445D01*
G37*
G36*
X149008000Y-117109000D02*
X147406000Y-117109000D01*
X147406000Y-115227000D01*
X149008000Y-115227000D01*
X149008000Y-117109000D01*
X149008000Y-117109000D01*
G37*
G36*
X139478000Y-117109000D02*
X137876000Y-117109000D01*
X137876000Y-115227000D01*
X139478000Y-115227000D01*
X139478000Y-117109000D01*
X139478000Y-117109000D01*
G37*
G36*
X132162999Y-114794445D02*
X132200493Y-114805819D01*
X132235057Y-114824294D01*
X132265347Y-114849153D01*
X132290206Y-114879443D01*
X132308681Y-114914007D01*
X132320055Y-114951501D01*
X132324500Y-114996638D01*
X132324500Y-115635362D01*
X132320055Y-115680499D01*
X132308681Y-115717993D01*
X132290206Y-115752557D01*
X132265347Y-115782847D01*
X132235057Y-115807706D01*
X132200493Y-115826181D01*
X132162999Y-115837555D01*
X132117862Y-115842000D01*
X131379138Y-115842000D01*
X131334001Y-115837555D01*
X131296507Y-115826181D01*
X131261943Y-115807706D01*
X131231653Y-115782847D01*
X131206794Y-115752557D01*
X131188319Y-115717993D01*
X131176945Y-115680499D01*
X131172500Y-115635362D01*
X131172500Y-114996638D01*
X131176945Y-114951501D01*
X131188319Y-114914007D01*
X131206794Y-114879443D01*
X131231653Y-114849153D01*
X131261943Y-114824294D01*
X131296507Y-114805819D01*
X131334001Y-114794445D01*
X131379138Y-114790000D01*
X132117862Y-114790000D01*
X132162999Y-114794445D01*
X132162999Y-114794445D01*
G37*
G36*
X130412999Y-114794445D02*
X130450493Y-114805819D01*
X130485057Y-114824294D01*
X130515347Y-114849153D01*
X130540206Y-114879443D01*
X130558681Y-114914007D01*
X130570055Y-114951501D01*
X130574500Y-114996638D01*
X130574500Y-115635362D01*
X130570055Y-115680499D01*
X130558681Y-115717993D01*
X130540206Y-115752557D01*
X130515347Y-115782847D01*
X130485057Y-115807706D01*
X130450493Y-115826181D01*
X130412999Y-115837555D01*
X130367862Y-115842000D01*
X129629138Y-115842000D01*
X129584001Y-115837555D01*
X129546507Y-115826181D01*
X129511943Y-115807706D01*
X129481653Y-115782847D01*
X129456794Y-115752557D01*
X129438319Y-115717993D01*
X129426945Y-115680499D01*
X129422500Y-115635362D01*
X129422500Y-114996638D01*
X129426945Y-114951501D01*
X129438319Y-114914007D01*
X129456794Y-114879443D01*
X129481653Y-114849153D01*
X129511943Y-114824294D01*
X129546507Y-114805819D01*
X129584001Y-114794445D01*
X129629138Y-114790000D01*
X130367862Y-114790000D01*
X130412999Y-114794445D01*
X130412999Y-114794445D01*
G37*
G36*
X121585942Y-113469018D02*
X121652127Y-113475537D01*
X121765353Y-113509884D01*
X121821967Y-113527057D01*
X121960587Y-113601152D01*
X121978491Y-113610722D01*
X122014229Y-113640052D01*
X122115686Y-113723314D01*
X122173582Y-113793862D01*
X122228278Y-113860509D01*
X122228279Y-113860511D01*
X122311943Y-114017033D01*
X122311943Y-114017034D01*
X122363463Y-114186873D01*
X122380859Y-114363500D01*
X122363463Y-114540127D01*
X122354704Y-114569000D01*
X122311943Y-114709967D01*
X122269164Y-114790000D01*
X122228278Y-114866491D01*
X122217648Y-114879443D01*
X122115686Y-115003686D01*
X122014229Y-115086948D01*
X121978491Y-115116278D01*
X121978489Y-115116279D01*
X121821967Y-115199943D01*
X121765353Y-115217116D01*
X121652127Y-115251463D01*
X121585943Y-115257981D01*
X121519760Y-115264500D01*
X121431240Y-115264500D01*
X121365057Y-115257981D01*
X121298873Y-115251463D01*
X121185647Y-115217116D01*
X121129033Y-115199943D01*
X120972511Y-115116279D01*
X120972509Y-115116278D01*
X120936771Y-115086948D01*
X120835314Y-115003686D01*
X120733352Y-114879443D01*
X120722722Y-114866491D01*
X120681836Y-114790000D01*
X120639057Y-114709967D01*
X120596296Y-114569000D01*
X120587537Y-114540127D01*
X120570141Y-114363500D01*
X120587537Y-114186873D01*
X120639057Y-114017034D01*
X120639057Y-114017033D01*
X120722721Y-113860511D01*
X120722722Y-113860509D01*
X120777418Y-113793862D01*
X120835314Y-113723314D01*
X120936771Y-113640052D01*
X120972509Y-113610722D01*
X120990413Y-113601152D01*
X121129033Y-113527057D01*
X121185647Y-113509884D01*
X121298873Y-113475537D01*
X121365058Y-113469018D01*
X121431240Y-113462500D01*
X121519760Y-113462500D01*
X121585942Y-113469018D01*
X121585942Y-113469018D01*
G37*
G36*
X149008000Y-114569000D02*
X147406000Y-114569000D01*
X147406000Y-112687000D01*
X149008000Y-112687000D01*
X149008000Y-114569000D01*
X149008000Y-114569000D01*
G37*
G36*
X139478000Y-114569000D02*
X137876000Y-114569000D01*
X137876000Y-112687000D01*
X139478000Y-112687000D01*
X139478000Y-114569000D01*
X139478000Y-114569000D01*
G37*
G36*
X130412999Y-112952945D02*
X130450493Y-112964319D01*
X130485057Y-112982794D01*
X130515347Y-113007653D01*
X130540206Y-113037943D01*
X130558681Y-113072507D01*
X130570055Y-113110001D01*
X130574500Y-113155138D01*
X130574500Y-113793862D01*
X130570055Y-113838999D01*
X130558681Y-113876493D01*
X130540206Y-113911057D01*
X130515347Y-113941347D01*
X130485057Y-113966206D01*
X130450493Y-113984681D01*
X130412999Y-113996055D01*
X130367862Y-114000500D01*
X129629138Y-114000500D01*
X129584001Y-113996055D01*
X129546507Y-113984681D01*
X129511943Y-113966206D01*
X129481653Y-113941347D01*
X129456794Y-113911057D01*
X129438319Y-113876493D01*
X129426945Y-113838999D01*
X129422500Y-113793862D01*
X129422500Y-113155138D01*
X129426945Y-113110001D01*
X129438319Y-113072507D01*
X129456794Y-113037943D01*
X129481653Y-113007653D01*
X129511943Y-112982794D01*
X129546507Y-112964319D01*
X129584001Y-112952945D01*
X129629138Y-112948500D01*
X130367862Y-112948500D01*
X130412999Y-112952945D01*
X130412999Y-112952945D01*
G37*
G36*
X132162999Y-112952945D02*
X132200493Y-112964319D01*
X132235057Y-112982794D01*
X132265347Y-113007653D01*
X132290206Y-113037943D01*
X132308681Y-113072507D01*
X132320055Y-113110001D01*
X132324500Y-113155138D01*
X132324500Y-113793862D01*
X132320055Y-113838999D01*
X132308681Y-113876493D01*
X132290206Y-113911057D01*
X132265347Y-113941347D01*
X132235057Y-113966206D01*
X132200493Y-113984681D01*
X132162999Y-113996055D01*
X132117862Y-114000500D01*
X131379138Y-114000500D01*
X131334001Y-113996055D01*
X131296507Y-113984681D01*
X131261943Y-113966206D01*
X131231653Y-113941347D01*
X131206794Y-113911057D01*
X131188319Y-113876493D01*
X131176945Y-113838999D01*
X131172500Y-113793862D01*
X131172500Y-113155138D01*
X131176945Y-113110001D01*
X131188319Y-113072507D01*
X131206794Y-113037943D01*
X131231653Y-113007653D01*
X131261943Y-112982794D01*
X131296507Y-112964319D01*
X131334001Y-112952945D01*
X131379138Y-112948500D01*
X132117862Y-112948500D01*
X132162999Y-112952945D01*
X132162999Y-112952945D01*
G37*
G36*
X168654000Y-113885000D02*
X163952000Y-113885000D01*
X163952000Y-112683000D01*
X168654000Y-112683000D01*
X168654000Y-113885000D01*
X168654000Y-113885000D01*
G37*
G36*
X175713122Y-107253862D02*
X176276868Y-107365998D01*
X176832067Y-107595969D01*
X177211237Y-107849323D01*
X177331736Y-107929838D01*
X177756662Y-108354764D01*
X177756664Y-108354767D01*
X178090531Y-108854433D01*
X178268256Y-109283500D01*
X178320502Y-109409633D01*
X178422754Y-109923685D01*
X178437740Y-109999028D01*
X178437740Y-110599972D01*
X178320502Y-111189368D01*
X178090531Y-111744567D01*
X177919772Y-112000125D01*
X177756662Y-112244236D01*
X177331736Y-112669162D01*
X177331733Y-112669164D01*
X176832067Y-113003031D01*
X176276868Y-113233002D01*
X175982170Y-113291621D01*
X175687473Y-113350240D01*
X175086527Y-113350240D01*
X174791830Y-113291621D01*
X174497132Y-113233002D01*
X173941933Y-113003031D01*
X173442267Y-112669164D01*
X173442264Y-112669162D01*
X173017338Y-112244236D01*
X172854228Y-112000125D01*
X172683469Y-111744567D01*
X172453498Y-111189368D01*
X172336260Y-110599972D01*
X172336260Y-109999028D01*
X172351247Y-109923685D01*
X172453498Y-109409633D01*
X172505744Y-109283500D01*
X172683469Y-108854433D01*
X173017336Y-108354767D01*
X173017338Y-108354764D01*
X173442264Y-107929838D01*
X173562763Y-107849323D01*
X173941933Y-107595969D01*
X174497132Y-107365998D01*
X175060878Y-107253862D01*
X175086527Y-107248760D01*
X175687473Y-107248760D01*
X175713122Y-107253862D01*
X175713122Y-107253862D01*
G37*
G36*
X121585943Y-110929019D02*
X121652127Y-110935537D01*
X121765353Y-110969884D01*
X121821967Y-110987057D01*
X121960587Y-111061152D01*
X121978491Y-111070722D01*
X122014229Y-111100052D01*
X122115686Y-111183314D01*
X122198948Y-111284771D01*
X122228278Y-111320509D01*
X122228279Y-111320511D01*
X122311943Y-111477033D01*
X122311943Y-111477034D01*
X122363463Y-111646873D01*
X122380859Y-111823500D01*
X122363463Y-112000127D01*
X122354704Y-112029000D01*
X122311943Y-112169967D01*
X122272246Y-112244233D01*
X122228278Y-112326491D01*
X122198948Y-112362229D01*
X122115686Y-112463686D01*
X122014229Y-112546948D01*
X121978491Y-112576278D01*
X121978489Y-112576279D01*
X121821967Y-112659943D01*
X121765353Y-112677116D01*
X121652127Y-112711463D01*
X121585943Y-112717981D01*
X121519760Y-112724500D01*
X121431240Y-112724500D01*
X121365057Y-112717981D01*
X121298873Y-112711463D01*
X121185647Y-112677116D01*
X121129033Y-112659943D01*
X120972511Y-112576279D01*
X120972509Y-112576278D01*
X120936771Y-112546948D01*
X120835314Y-112463686D01*
X120752052Y-112362229D01*
X120722722Y-112326491D01*
X120678754Y-112244233D01*
X120639057Y-112169967D01*
X120596296Y-112029000D01*
X120587537Y-112000127D01*
X120570141Y-111823500D01*
X120587537Y-111646873D01*
X120639057Y-111477034D01*
X120639057Y-111477033D01*
X120722721Y-111320511D01*
X120722722Y-111320509D01*
X120752052Y-111284771D01*
X120835314Y-111183314D01*
X120936771Y-111100052D01*
X120972509Y-111070722D01*
X120990413Y-111061152D01*
X121129033Y-110987057D01*
X121185647Y-110969884D01*
X121298873Y-110935537D01*
X121365057Y-110929019D01*
X121431240Y-110922500D01*
X121519760Y-110922500D01*
X121585943Y-110929019D01*
X121585943Y-110929019D01*
G37*
G36*
X149008000Y-112029000D02*
X147406000Y-112029000D01*
X147406000Y-110147000D01*
X149008000Y-110147000D01*
X149008000Y-112029000D01*
X149008000Y-112029000D01*
G37*
G36*
X139478000Y-112029000D02*
X137876000Y-112029000D01*
X137876000Y-110147000D01*
X139478000Y-110147000D01*
X139478000Y-112029000D01*
X139478000Y-112029000D01*
G37*
G36*
X129692500Y-111075000D02*
X127990500Y-111075000D01*
X127990500Y-107873000D01*
X129692500Y-107873000D01*
X129692500Y-111075000D01*
X129692500Y-111075000D01*
G37*
G36*
X132232500Y-111075000D02*
X130530500Y-111075000D01*
X130530500Y-107873000D01*
X132232500Y-107873000D01*
X132232500Y-111075000D01*
X132232500Y-111075000D01*
G37*
G36*
X134772500Y-111075000D02*
X133070500Y-111075000D01*
X133070500Y-107873000D01*
X134772500Y-107873000D01*
X134772500Y-111075000D01*
X134772500Y-111075000D01*
G37*
G36*
X121585943Y-108389019D02*
X121652127Y-108395537D01*
X121765353Y-108429884D01*
X121821967Y-108447057D01*
X121960587Y-108521152D01*
X121978491Y-108530722D01*
X122014229Y-108560052D01*
X122115686Y-108643314D01*
X122195127Y-108740115D01*
X122228278Y-108780509D01*
X122228279Y-108780511D01*
X122311943Y-108937033D01*
X122311943Y-108937034D01*
X122363463Y-109106873D01*
X122380859Y-109283500D01*
X122363463Y-109460127D01*
X122329116Y-109573353D01*
X122311943Y-109629967D01*
X122237848Y-109768587D01*
X122228278Y-109786491D01*
X122198948Y-109822229D01*
X122115686Y-109923686D01*
X122023881Y-109999027D01*
X121978491Y-110036278D01*
X121978489Y-110036279D01*
X121821967Y-110119943D01*
X121765353Y-110137116D01*
X121652127Y-110171463D01*
X121585942Y-110177982D01*
X121519760Y-110184500D01*
X121431240Y-110184500D01*
X121365058Y-110177982D01*
X121298873Y-110171463D01*
X121185647Y-110137116D01*
X121129033Y-110119943D01*
X120972511Y-110036279D01*
X120972509Y-110036278D01*
X120927119Y-109999027D01*
X120835314Y-109923686D01*
X120752052Y-109822229D01*
X120722722Y-109786491D01*
X120713152Y-109768587D01*
X120639057Y-109629967D01*
X120621884Y-109573353D01*
X120587537Y-109460127D01*
X120570141Y-109283500D01*
X120587537Y-109106873D01*
X120639057Y-108937034D01*
X120639057Y-108937033D01*
X120722721Y-108780511D01*
X120722722Y-108780509D01*
X120755873Y-108740115D01*
X120835314Y-108643314D01*
X120936771Y-108560052D01*
X120972509Y-108530722D01*
X120990413Y-108521152D01*
X121129033Y-108447057D01*
X121185647Y-108429884D01*
X121298873Y-108395537D01*
X121365057Y-108389019D01*
X121431240Y-108382500D01*
X121519760Y-108382500D01*
X121585943Y-108389019D01*
X121585943Y-108389019D01*
G37*
G36*
X166988499Y-108062945D02*
X167025993Y-108074319D01*
X167060557Y-108092794D01*
X167090847Y-108117653D01*
X167115706Y-108147943D01*
X167134181Y-108182507D01*
X167145555Y-108220001D01*
X167150000Y-108265138D01*
X167150000Y-109003862D01*
X167145555Y-109048999D01*
X167134181Y-109086493D01*
X167115706Y-109121057D01*
X167090847Y-109151347D01*
X167060557Y-109176206D01*
X167025993Y-109194681D01*
X166988499Y-109206055D01*
X166943362Y-109210500D01*
X166304638Y-109210500D01*
X166259501Y-109206055D01*
X166222007Y-109194681D01*
X166187443Y-109176206D01*
X166157153Y-109151347D01*
X166132294Y-109121057D01*
X166113819Y-109086493D01*
X166102445Y-109048999D01*
X166098000Y-109003862D01*
X166098000Y-108265138D01*
X166102445Y-108220001D01*
X166113819Y-108182507D01*
X166132294Y-108147943D01*
X166157153Y-108117653D01*
X166187443Y-108092794D01*
X166222007Y-108074319D01*
X166259501Y-108062945D01*
X166304638Y-108058500D01*
X166943362Y-108058500D01*
X166988499Y-108062945D01*
X166988499Y-108062945D01*
G37*
G36*
X168956999Y-108062945D02*
X168994493Y-108074319D01*
X169029057Y-108092794D01*
X169059347Y-108117653D01*
X169084206Y-108147943D01*
X169102681Y-108182507D01*
X169114055Y-108220001D01*
X169118500Y-108265138D01*
X169118500Y-109003862D01*
X169114055Y-109048999D01*
X169102681Y-109086493D01*
X169084206Y-109121057D01*
X169059347Y-109151347D01*
X169029057Y-109176206D01*
X168994493Y-109194681D01*
X168956999Y-109206055D01*
X168911862Y-109210500D01*
X168273138Y-109210500D01*
X168228001Y-109206055D01*
X168190507Y-109194681D01*
X168155943Y-109176206D01*
X168125653Y-109151347D01*
X168100794Y-109121057D01*
X168082319Y-109086493D01*
X168070945Y-109048999D01*
X168066500Y-109003862D01*
X168066500Y-108265138D01*
X168070945Y-108220001D01*
X168082319Y-108182507D01*
X168100794Y-108147943D01*
X168125653Y-108117653D01*
X168155943Y-108092794D01*
X168190507Y-108074319D01*
X168228001Y-108062945D01*
X168273138Y-108058500D01*
X168911862Y-108058500D01*
X168956999Y-108062945D01*
X168956999Y-108062945D01*
G37*
G36*
X148926999Y-107936445D02*
X148964493Y-107947819D01*
X148999057Y-107966294D01*
X149029347Y-107991153D01*
X149054206Y-108021443D01*
X149072681Y-108056007D01*
X149084055Y-108093501D01*
X149088500Y-108138638D01*
X149088500Y-108777362D01*
X149084055Y-108822499D01*
X149072681Y-108859993D01*
X149054206Y-108894557D01*
X149029347Y-108924847D01*
X148999057Y-108949706D01*
X148964493Y-108968181D01*
X148926999Y-108979555D01*
X148881862Y-108984000D01*
X148143138Y-108984000D01*
X148098001Y-108979555D01*
X148060507Y-108968181D01*
X148025943Y-108949706D01*
X147995653Y-108924847D01*
X147970794Y-108894557D01*
X147952319Y-108859993D01*
X147940945Y-108822499D01*
X147936500Y-108777362D01*
X147936500Y-108138638D01*
X147940945Y-108093501D01*
X147952319Y-108056007D01*
X147970794Y-108021443D01*
X147995653Y-107991153D01*
X148025943Y-107966294D01*
X148060507Y-107947819D01*
X148098001Y-107936445D01*
X148143138Y-107932000D01*
X148881862Y-107932000D01*
X148926999Y-107936445D01*
X148926999Y-107936445D01*
G37*
G36*
X147176999Y-107936445D02*
X147214493Y-107947819D01*
X147249057Y-107966294D01*
X147279347Y-107991153D01*
X147304206Y-108021443D01*
X147322681Y-108056007D01*
X147334055Y-108093501D01*
X147338500Y-108138638D01*
X147338500Y-108777362D01*
X147334055Y-108822499D01*
X147322681Y-108859993D01*
X147304206Y-108894557D01*
X147279347Y-108924847D01*
X147249057Y-108949706D01*
X147214493Y-108968181D01*
X147176999Y-108979555D01*
X147131862Y-108984000D01*
X146393138Y-108984000D01*
X146348001Y-108979555D01*
X146310507Y-108968181D01*
X146275943Y-108949706D01*
X146245653Y-108924847D01*
X146220794Y-108894557D01*
X146202319Y-108859993D01*
X146190945Y-108822499D01*
X146186500Y-108777362D01*
X146186500Y-108138638D01*
X146190945Y-108093501D01*
X146202319Y-108056007D01*
X146220794Y-108021443D01*
X146245653Y-107991153D01*
X146275943Y-107966294D01*
X146310507Y-107947819D01*
X146348001Y-107936445D01*
X146393138Y-107932000D01*
X147131862Y-107932000D01*
X147176999Y-107936445D01*
X147176999Y-107936445D01*
G37*
G36*
X165070000Y-108936000D02*
X163418000Y-108936000D01*
X163418000Y-108234000D01*
X165070000Y-108234000D01*
X165070000Y-108936000D01*
X165070000Y-108936000D01*
G37*
G36*
X159670000Y-108936000D02*
X158018000Y-108936000D01*
X158018000Y-108234000D01*
X159670000Y-108234000D01*
X159670000Y-108936000D01*
X159670000Y-108936000D01*
G37*
G36*
X138794999Y-107809445D02*
X138832493Y-107820819D01*
X138867057Y-107839294D01*
X138897347Y-107864153D01*
X138922206Y-107894443D01*
X138940681Y-107929007D01*
X138952055Y-107966501D01*
X138956500Y-108011638D01*
X138956500Y-108650362D01*
X138952055Y-108695499D01*
X138940681Y-108732993D01*
X138922206Y-108767557D01*
X138897347Y-108797847D01*
X138867057Y-108822706D01*
X138832493Y-108841181D01*
X138794999Y-108852555D01*
X138749862Y-108857000D01*
X138011138Y-108857000D01*
X137966001Y-108852555D01*
X137928507Y-108841181D01*
X137893943Y-108822706D01*
X137863653Y-108797847D01*
X137838794Y-108767557D01*
X137820319Y-108732993D01*
X137808945Y-108695499D01*
X137804500Y-108650362D01*
X137804500Y-108011638D01*
X137808945Y-107966501D01*
X137820319Y-107929007D01*
X137838794Y-107894443D01*
X137863653Y-107864153D01*
X137893943Y-107839294D01*
X137928507Y-107820819D01*
X137966001Y-107809445D01*
X138011138Y-107805000D01*
X138749862Y-107805000D01*
X138794999Y-107809445D01*
X138794999Y-107809445D01*
G37*
G36*
X140544999Y-107809445D02*
X140582493Y-107820819D01*
X140617057Y-107839294D01*
X140647347Y-107864153D01*
X140672206Y-107894443D01*
X140690681Y-107929007D01*
X140702055Y-107966501D01*
X140706500Y-108011638D01*
X140706500Y-108650362D01*
X140702055Y-108695499D01*
X140690681Y-108732993D01*
X140672206Y-108767557D01*
X140647347Y-108797847D01*
X140617057Y-108822706D01*
X140582493Y-108841181D01*
X140544999Y-108852555D01*
X140499862Y-108857000D01*
X139761138Y-108857000D01*
X139716001Y-108852555D01*
X139678507Y-108841181D01*
X139643943Y-108822706D01*
X139613653Y-108797847D01*
X139588794Y-108767557D01*
X139570319Y-108732993D01*
X139558945Y-108695499D01*
X139554500Y-108650362D01*
X139554500Y-108011638D01*
X139558945Y-107966501D01*
X139570319Y-107929007D01*
X139588794Y-107894443D01*
X139613653Y-107864153D01*
X139643943Y-107839294D01*
X139678507Y-107820819D01*
X139716001Y-107809445D01*
X139761138Y-107805000D01*
X140499862Y-107805000D01*
X140544999Y-107809445D01*
X140544999Y-107809445D01*
G37*
G36*
X156955499Y-106792945D02*
X156992993Y-106804319D01*
X157027557Y-106822794D01*
X157057847Y-106847653D01*
X157082706Y-106877943D01*
X157101181Y-106912507D01*
X157112555Y-106950001D01*
X157117000Y-106995138D01*
X157117000Y-107733862D01*
X157112555Y-107778999D01*
X157101181Y-107816493D01*
X157082706Y-107851057D01*
X157057847Y-107881347D01*
X157027557Y-107906206D01*
X156992993Y-107924681D01*
X156955499Y-107936055D01*
X156910362Y-107940500D01*
X156271638Y-107940500D01*
X156226501Y-107936055D01*
X156189007Y-107924681D01*
X156154443Y-107906206D01*
X156124153Y-107881347D01*
X156099294Y-107851057D01*
X156080819Y-107816493D01*
X156069445Y-107778999D01*
X156065000Y-107733862D01*
X156065000Y-106995138D01*
X156069445Y-106950001D01*
X156080819Y-106912507D01*
X156099294Y-106877943D01*
X156124153Y-106847653D01*
X156154443Y-106822794D01*
X156189007Y-106804319D01*
X156226501Y-106792945D01*
X156271638Y-106788500D01*
X156910362Y-106788500D01*
X156955499Y-106792945D01*
X156955499Y-106792945D01*
G37*
G36*
X165070000Y-107666000D02*
X163418000Y-107666000D01*
X163418000Y-106964000D01*
X165070000Y-106964000D01*
X165070000Y-107666000D01*
X165070000Y-107666000D01*
G37*
G36*
X159670000Y-107666000D02*
X158018000Y-107666000D01*
X158018000Y-106964000D01*
X159670000Y-106964000D01*
X159670000Y-107666000D01*
X159670000Y-107666000D01*
G37*
G36*
X122376500Y-107644500D02*
X120574500Y-107644500D01*
X120574500Y-105842500D01*
X122376500Y-105842500D01*
X122376500Y-107644500D01*
X122376500Y-107644500D01*
G37*
G36*
X168956999Y-106312945D02*
X168994493Y-106324319D01*
X169029057Y-106342794D01*
X169059347Y-106367653D01*
X169084206Y-106397943D01*
X169102681Y-106432507D01*
X169114055Y-106470001D01*
X169118500Y-106515138D01*
X169118500Y-107253862D01*
X169114055Y-107298999D01*
X169102681Y-107336493D01*
X169084206Y-107371057D01*
X169059347Y-107401347D01*
X169029057Y-107426206D01*
X168994493Y-107444681D01*
X168956999Y-107456055D01*
X168911862Y-107460500D01*
X168273138Y-107460500D01*
X168228001Y-107456055D01*
X168190507Y-107444681D01*
X168155943Y-107426206D01*
X168125653Y-107401347D01*
X168100794Y-107371057D01*
X168082319Y-107336493D01*
X168070945Y-107298999D01*
X168066500Y-107253862D01*
X168066500Y-106515138D01*
X168070945Y-106470001D01*
X168082319Y-106432507D01*
X168100794Y-106397943D01*
X168125653Y-106367653D01*
X168155943Y-106342794D01*
X168190507Y-106324319D01*
X168228001Y-106312945D01*
X168273138Y-106308500D01*
X168911862Y-106308500D01*
X168956999Y-106312945D01*
X168956999Y-106312945D01*
G37*
G36*
X166988499Y-106312945D02*
X167025993Y-106324319D01*
X167060557Y-106342794D01*
X167090847Y-106367653D01*
X167115706Y-106397943D01*
X167134181Y-106432507D01*
X167145555Y-106470001D01*
X167150000Y-106515138D01*
X167150000Y-107253862D01*
X167145555Y-107298999D01*
X167134181Y-107336493D01*
X167115706Y-107371057D01*
X167090847Y-107401347D01*
X167060557Y-107426206D01*
X167025993Y-107444681D01*
X166988499Y-107456055D01*
X166943362Y-107460500D01*
X166304638Y-107460500D01*
X166259501Y-107456055D01*
X166222007Y-107444681D01*
X166187443Y-107426206D01*
X166157153Y-107401347D01*
X166132294Y-107371057D01*
X166113819Y-107336493D01*
X166102445Y-107298999D01*
X166098000Y-107253862D01*
X166098000Y-106515138D01*
X166102445Y-106470001D01*
X166113819Y-106432507D01*
X166132294Y-106397943D01*
X166157153Y-106367653D01*
X166187443Y-106342794D01*
X166222007Y-106324319D01*
X166259501Y-106312945D01*
X166304638Y-106308500D01*
X166943362Y-106308500D01*
X166988499Y-106312945D01*
X166988499Y-106312945D01*
G37*
G36*
X159670000Y-106396000D02*
X158018000Y-106396000D01*
X158018000Y-105694000D01*
X159670000Y-105694000D01*
X159670000Y-106396000D01*
X159670000Y-106396000D01*
G37*
G36*
X165070000Y-106396000D02*
X163418000Y-106396000D01*
X163418000Y-105694000D01*
X165070000Y-105694000D01*
X165070000Y-106396000D01*
X165070000Y-106396000D01*
G37*
G36*
X156955499Y-105042945D02*
X156992993Y-105054319D01*
X157027557Y-105072794D01*
X157057847Y-105097653D01*
X157082706Y-105127943D01*
X157101181Y-105162507D01*
X157112555Y-105200001D01*
X157117000Y-105245138D01*
X157117000Y-105983862D01*
X157112555Y-106028999D01*
X157101181Y-106066493D01*
X157082706Y-106101057D01*
X157057847Y-106131347D01*
X157027557Y-106156206D01*
X156992993Y-106174681D01*
X156955499Y-106186055D01*
X156910362Y-106190500D01*
X156271638Y-106190500D01*
X156226501Y-106186055D01*
X156189007Y-106174681D01*
X156154443Y-106156206D01*
X156124153Y-106131347D01*
X156099294Y-106101057D01*
X156080819Y-106066493D01*
X156069445Y-106028999D01*
X156065000Y-105983862D01*
X156065000Y-105245138D01*
X156069445Y-105200001D01*
X156080819Y-105162507D01*
X156099294Y-105127943D01*
X156124153Y-105097653D01*
X156154443Y-105072794D01*
X156189007Y-105054319D01*
X156226501Y-105042945D01*
X156271638Y-105038500D01*
X156910362Y-105038500D01*
X156955499Y-105042945D01*
X156955499Y-105042945D01*
G37*
G36*
X175950729Y-99681125D02*
X176276868Y-99745998D01*
X176832067Y-99975969D01*
X177273611Y-100271000D01*
X177331736Y-100309838D01*
X177756662Y-100734764D01*
X177756664Y-100734767D01*
X178090531Y-101234433D01*
X178320502Y-101789632D01*
X178320502Y-101789633D01*
X178399146Y-102185000D01*
X178437740Y-102379028D01*
X178437740Y-102979972D01*
X178320502Y-103569368D01*
X178090531Y-104124567D01*
X177758916Y-104620863D01*
X177756662Y-104624236D01*
X177331736Y-105049162D01*
X177331733Y-105049164D01*
X176832067Y-105383031D01*
X176276868Y-105613002D01*
X175982170Y-105671621D01*
X175687473Y-105730240D01*
X175086527Y-105730240D01*
X174791830Y-105671621D01*
X174497132Y-105613002D01*
X173941933Y-105383031D01*
X173442267Y-105049164D01*
X173442264Y-105049162D01*
X173017338Y-104624236D01*
X173015084Y-104620863D01*
X172683469Y-104124567D01*
X172453498Y-103569368D01*
X172336260Y-102979972D01*
X172336260Y-102379028D01*
X172374855Y-102185000D01*
X172453498Y-101789633D01*
X172453498Y-101789632D01*
X172683469Y-101234433D01*
X173017336Y-100734767D01*
X173017338Y-100734764D01*
X173442264Y-100309838D01*
X173500389Y-100271000D01*
X173941933Y-99975969D01*
X174497132Y-99745998D01*
X174823271Y-99681125D01*
X175086527Y-99628760D01*
X175687473Y-99628760D01*
X175950729Y-99681125D01*
X175950729Y-99681125D01*
G37*
G36*
X165070000Y-105126000D02*
X163418000Y-105126000D01*
X163418000Y-104424000D01*
X165070000Y-104424000D01*
X165070000Y-105126000D01*
X165070000Y-105126000D01*
G37*
G36*
X159670000Y-105126000D02*
X158018000Y-105126000D01*
X158018000Y-104424000D01*
X159670000Y-104424000D01*
X159670000Y-105126000D01*
X159670000Y-105126000D01*
G37*
G36*
X149561999Y-102602445D02*
X149599493Y-102613819D01*
X149634057Y-102632294D01*
X149664347Y-102657153D01*
X149689206Y-102687443D01*
X149707681Y-102722007D01*
X149719055Y-102759501D01*
X149723500Y-102804638D01*
X149723500Y-103443362D01*
X149719055Y-103488499D01*
X149707681Y-103525993D01*
X149689206Y-103560557D01*
X149664347Y-103590847D01*
X149634057Y-103615706D01*
X149599493Y-103634181D01*
X149561999Y-103645555D01*
X149516862Y-103650000D01*
X148778138Y-103650000D01*
X148733001Y-103645555D01*
X148695507Y-103634181D01*
X148660943Y-103615706D01*
X148630653Y-103590847D01*
X148605794Y-103560557D01*
X148587319Y-103525993D01*
X148575945Y-103488499D01*
X148571500Y-103443362D01*
X148571500Y-102804638D01*
X148575945Y-102759501D01*
X148587319Y-102722007D01*
X148605794Y-102687443D01*
X148630653Y-102657153D01*
X148660943Y-102632294D01*
X148695507Y-102613819D01*
X148733001Y-102602445D01*
X148778138Y-102598000D01*
X149516862Y-102598000D01*
X149561999Y-102602445D01*
X149561999Y-102602445D01*
G37*
G36*
X147811999Y-102602445D02*
X147849493Y-102613819D01*
X147884057Y-102632294D01*
X147914347Y-102657153D01*
X147939206Y-102687443D01*
X147957681Y-102722007D01*
X147969055Y-102759501D01*
X147973500Y-102804638D01*
X147973500Y-103443362D01*
X147969055Y-103488499D01*
X147957681Y-103525993D01*
X147939206Y-103560557D01*
X147914347Y-103590847D01*
X147884057Y-103615706D01*
X147849493Y-103634181D01*
X147811999Y-103645555D01*
X147766862Y-103650000D01*
X147028138Y-103650000D01*
X146983001Y-103645555D01*
X146945507Y-103634181D01*
X146910943Y-103615706D01*
X146880653Y-103590847D01*
X146855794Y-103560557D01*
X146837319Y-103525993D01*
X146825945Y-103488499D01*
X146821500Y-103443362D01*
X146821500Y-102804638D01*
X146825945Y-102759501D01*
X146837319Y-102722007D01*
X146855794Y-102687443D01*
X146880653Y-102657153D01*
X146910943Y-102632294D01*
X146945507Y-102613819D01*
X146983001Y-102602445D01*
X147028138Y-102598000D01*
X147766862Y-102598000D01*
X147811999Y-102602445D01*
X147811999Y-102602445D01*
G37*
G36*
X121522443Y-101150019D02*
X121588627Y-101156537D01*
X121701853Y-101190884D01*
X121758467Y-101208057D01*
X121807812Y-101234433D01*
X121914991Y-101291722D01*
X121950729Y-101321052D01*
X122052186Y-101404314D01*
X122135448Y-101505771D01*
X122164778Y-101541509D01*
X122164779Y-101541511D01*
X122248443Y-101698033D01*
X122248443Y-101698034D01*
X122299963Y-101867873D01*
X122317359Y-102044500D01*
X122299963Y-102221127D01*
X122265616Y-102334353D01*
X122248443Y-102390967D01*
X122174348Y-102529587D01*
X122164778Y-102547491D01*
X122135448Y-102583229D01*
X122052186Y-102684686D01*
X121961022Y-102759501D01*
X121914991Y-102797278D01*
X121897087Y-102806848D01*
X121758467Y-102880943D01*
X121701853Y-102898116D01*
X121588627Y-102932463D01*
X121522442Y-102938982D01*
X121456260Y-102945500D01*
X121367740Y-102945500D01*
X121301558Y-102938982D01*
X121235373Y-102932463D01*
X121122147Y-102898116D01*
X121065533Y-102880943D01*
X120926913Y-102806848D01*
X120909009Y-102797278D01*
X120862978Y-102759501D01*
X120771814Y-102684686D01*
X120688552Y-102583229D01*
X120659222Y-102547491D01*
X120649652Y-102529587D01*
X120575557Y-102390967D01*
X120558384Y-102334353D01*
X120524037Y-102221127D01*
X120506641Y-102044500D01*
X120524037Y-101867873D01*
X120575557Y-101698034D01*
X120575557Y-101698033D01*
X120659221Y-101541511D01*
X120659222Y-101541509D01*
X120688552Y-101505771D01*
X120771814Y-101404314D01*
X120873271Y-101321052D01*
X120909009Y-101291722D01*
X121016188Y-101234433D01*
X121065533Y-101208057D01*
X121122147Y-101190884D01*
X121235373Y-101156537D01*
X121301557Y-101150019D01*
X121367740Y-101143500D01*
X121456260Y-101143500D01*
X121522443Y-101150019D01*
X121522443Y-101150019D01*
G37*
G36*
X132232500Y-102185000D02*
X130530500Y-102185000D01*
X130530500Y-98983000D01*
X132232500Y-98983000D01*
X132232500Y-102185000D01*
X132232500Y-102185000D01*
G37*
G36*
X134772500Y-102185000D02*
X133070500Y-102185000D01*
X133070500Y-98983000D01*
X134772500Y-98983000D01*
X134772500Y-102185000D01*
X134772500Y-102185000D01*
G37*
G36*
X129692500Y-102185000D02*
X127990500Y-102185000D01*
X127990500Y-98983000D01*
X129692500Y-98983000D01*
X129692500Y-102185000D01*
X129692500Y-102185000D01*
G37*
G36*
X165006500Y-101506500D02*
X163354500Y-101506500D01*
X163354500Y-100804500D01*
X165006500Y-100804500D01*
X165006500Y-101506500D01*
X165006500Y-101506500D01*
G37*
G36*
X159606500Y-101506500D02*
X157954500Y-101506500D01*
X157954500Y-100804500D01*
X159606500Y-100804500D01*
X159606500Y-101506500D01*
X159606500Y-101506500D01*
G37*
G36*
X149708500Y-101271000D02*
X148106500Y-101271000D01*
X148106500Y-99389000D01*
X149708500Y-99389000D01*
X149708500Y-101271000D01*
X149708500Y-101271000D01*
G37*
G36*
X140178500Y-101271000D02*
X138576500Y-101271000D01*
X138576500Y-99389000D01*
X140178500Y-99389000D01*
X140178500Y-101271000D01*
X140178500Y-101271000D01*
G37*
G36*
X167940999Y-100012445D02*
X167978493Y-100023819D01*
X168013057Y-100042294D01*
X168043347Y-100067153D01*
X168068206Y-100097443D01*
X168086681Y-100132007D01*
X168098055Y-100169501D01*
X168102500Y-100214638D01*
X168102500Y-100953362D01*
X168098055Y-100998499D01*
X168086681Y-101035993D01*
X168068206Y-101070557D01*
X168043347Y-101100847D01*
X168013057Y-101125706D01*
X167978493Y-101144181D01*
X167940999Y-101155555D01*
X167895862Y-101160000D01*
X167257138Y-101160000D01*
X167212001Y-101155555D01*
X167174507Y-101144181D01*
X167139943Y-101125706D01*
X167109653Y-101100847D01*
X167084794Y-101070557D01*
X167066319Y-101035993D01*
X167054945Y-100998499D01*
X167050500Y-100953362D01*
X167050500Y-100214638D01*
X167054945Y-100169501D01*
X167066319Y-100132007D01*
X167084794Y-100097443D01*
X167109653Y-100067153D01*
X167139943Y-100042294D01*
X167174507Y-100023819D01*
X167212001Y-100012445D01*
X167257138Y-100008000D01*
X167895862Y-100008000D01*
X167940999Y-100012445D01*
X167940999Y-100012445D01*
G37*
G36*
X169845999Y-100012445D02*
X169883493Y-100023819D01*
X169918057Y-100042294D01*
X169948347Y-100067153D01*
X169973206Y-100097443D01*
X169991681Y-100132007D01*
X170003055Y-100169501D01*
X170007500Y-100214638D01*
X170007500Y-100953362D01*
X170003055Y-100998499D01*
X169991681Y-101035993D01*
X169973206Y-101070557D01*
X169948347Y-101100847D01*
X169918057Y-101125706D01*
X169883493Y-101144181D01*
X169845999Y-101155555D01*
X169800862Y-101160000D01*
X169162138Y-101160000D01*
X169117001Y-101155555D01*
X169079507Y-101144181D01*
X169044943Y-101125706D01*
X169014653Y-101100847D01*
X168989794Y-101070557D01*
X168971319Y-101035993D01*
X168959945Y-100998499D01*
X168955500Y-100953362D01*
X168955500Y-100214638D01*
X168959945Y-100169501D01*
X168971319Y-100132007D01*
X168989794Y-100097443D01*
X169014653Y-100067153D01*
X169044943Y-100042294D01*
X169079507Y-100023819D01*
X169117001Y-100012445D01*
X169162138Y-100008000D01*
X169800862Y-100008000D01*
X169845999Y-100012445D01*
X169845999Y-100012445D01*
G37*
G36*
X156701499Y-99377445D02*
X156738993Y-99388819D01*
X156773557Y-99407294D01*
X156803847Y-99432153D01*
X156828706Y-99462443D01*
X156847181Y-99497007D01*
X156858555Y-99534501D01*
X156863000Y-99579638D01*
X156863000Y-100318362D01*
X156858555Y-100363499D01*
X156847181Y-100400993D01*
X156828706Y-100435557D01*
X156803847Y-100465847D01*
X156773557Y-100490706D01*
X156738993Y-100509181D01*
X156701499Y-100520555D01*
X156656362Y-100525000D01*
X156017638Y-100525000D01*
X155972501Y-100520555D01*
X155935007Y-100509181D01*
X155900443Y-100490706D01*
X155870153Y-100465847D01*
X155845294Y-100435557D01*
X155826819Y-100400993D01*
X155815445Y-100363499D01*
X155811000Y-100318362D01*
X155811000Y-99579638D01*
X155815445Y-99534501D01*
X155826819Y-99497007D01*
X155845294Y-99462443D01*
X155870153Y-99432153D01*
X155900443Y-99407294D01*
X155935007Y-99388819D01*
X155972501Y-99377445D01*
X156017638Y-99373000D01*
X156656362Y-99373000D01*
X156701499Y-99377445D01*
X156701499Y-99377445D01*
G37*
G36*
X121522442Y-98610018D02*
X121588627Y-98616537D01*
X121701853Y-98650884D01*
X121758467Y-98668057D01*
X121847874Y-98715847D01*
X121914991Y-98751722D01*
X121937198Y-98769947D01*
X122052186Y-98864314D01*
X122135448Y-98965771D01*
X122164778Y-99001509D01*
X122164779Y-99001511D01*
X122248443Y-99158033D01*
X122248443Y-99158034D01*
X122299963Y-99327873D01*
X122317359Y-99504500D01*
X122299963Y-99681127D01*
X122265616Y-99794353D01*
X122248443Y-99850967D01*
X122181627Y-99975969D01*
X122164778Y-100007491D01*
X122164360Y-100008000D01*
X122052186Y-100144686D01*
X121966948Y-100214638D01*
X121914991Y-100257278D01*
X121914989Y-100257279D01*
X121758467Y-100340943D01*
X121701853Y-100358116D01*
X121588627Y-100392463D01*
X121522442Y-100398982D01*
X121456260Y-100405500D01*
X121367740Y-100405500D01*
X121301558Y-100398982D01*
X121235373Y-100392463D01*
X121122147Y-100358116D01*
X121065533Y-100340943D01*
X120909011Y-100257279D01*
X120909009Y-100257278D01*
X120857052Y-100214638D01*
X120771814Y-100144686D01*
X120659640Y-100008000D01*
X120659222Y-100007491D01*
X120642373Y-99975969D01*
X120575557Y-99850967D01*
X120558384Y-99794353D01*
X120524037Y-99681127D01*
X120506641Y-99504500D01*
X120524037Y-99327873D01*
X120575557Y-99158034D01*
X120575557Y-99158033D01*
X120659221Y-99001511D01*
X120659222Y-99001509D01*
X120688552Y-98965771D01*
X120771814Y-98864314D01*
X120886802Y-98769947D01*
X120909009Y-98751722D01*
X120976126Y-98715847D01*
X121065533Y-98668057D01*
X121122147Y-98650884D01*
X121235373Y-98616537D01*
X121301558Y-98610018D01*
X121367740Y-98603500D01*
X121456260Y-98603500D01*
X121522442Y-98610018D01*
X121522442Y-98610018D01*
G37*
G36*
X165006500Y-100236500D02*
X163354500Y-100236500D01*
X163354500Y-99534500D01*
X165006500Y-99534500D01*
X165006500Y-100236500D01*
X165006500Y-100236500D01*
G37*
G36*
X159606500Y-100236500D02*
X157954500Y-100236500D01*
X157954500Y-99534500D01*
X159606500Y-99534500D01*
X159606500Y-100236500D01*
X159606500Y-100236500D01*
G37*
G36*
X167940999Y-98262445D02*
X167978493Y-98273819D01*
X168013057Y-98292294D01*
X168043347Y-98317153D01*
X168068206Y-98347443D01*
X168086681Y-98382007D01*
X168098055Y-98419501D01*
X168102500Y-98464638D01*
X168102500Y-99203362D01*
X168098055Y-99248499D01*
X168086681Y-99285993D01*
X168068206Y-99320557D01*
X168043347Y-99350847D01*
X168013057Y-99375706D01*
X167978493Y-99394181D01*
X167940999Y-99405555D01*
X167895862Y-99410000D01*
X167257138Y-99410000D01*
X167212001Y-99405555D01*
X167174507Y-99394181D01*
X167139943Y-99375706D01*
X167109653Y-99350847D01*
X167084794Y-99320557D01*
X167066319Y-99285993D01*
X167054945Y-99248499D01*
X167050500Y-99203362D01*
X167050500Y-98464638D01*
X167054945Y-98419501D01*
X167066319Y-98382007D01*
X167084794Y-98347443D01*
X167109653Y-98317153D01*
X167139943Y-98292294D01*
X167174507Y-98273819D01*
X167212001Y-98262445D01*
X167257138Y-98258000D01*
X167895862Y-98258000D01*
X167940999Y-98262445D01*
X167940999Y-98262445D01*
G37*
G36*
X169845999Y-98262445D02*
X169883493Y-98273819D01*
X169918057Y-98292294D01*
X169948347Y-98317153D01*
X169973206Y-98347443D01*
X169991681Y-98382007D01*
X170003055Y-98419501D01*
X170007500Y-98464638D01*
X170007500Y-99203362D01*
X170003055Y-99248499D01*
X169991681Y-99285993D01*
X169973206Y-99320557D01*
X169948347Y-99350847D01*
X169918057Y-99375706D01*
X169883493Y-99394181D01*
X169845999Y-99405555D01*
X169800862Y-99410000D01*
X169162138Y-99410000D01*
X169117001Y-99405555D01*
X169079507Y-99394181D01*
X169044943Y-99375706D01*
X169014653Y-99350847D01*
X168989794Y-99320557D01*
X168971319Y-99285993D01*
X168959945Y-99248499D01*
X168955500Y-99203362D01*
X168955500Y-98464638D01*
X168959945Y-98419501D01*
X168971319Y-98382007D01*
X168989794Y-98347443D01*
X169014653Y-98317153D01*
X169044943Y-98292294D01*
X169079507Y-98273819D01*
X169117001Y-98262445D01*
X169162138Y-98258000D01*
X169800862Y-98258000D01*
X169845999Y-98262445D01*
X169845999Y-98262445D01*
G37*
G36*
X159606500Y-98966500D02*
X157954500Y-98966500D01*
X157954500Y-98264500D01*
X159606500Y-98264500D01*
X159606500Y-98966500D01*
X159606500Y-98966500D01*
G37*
G36*
X165006500Y-98966500D02*
X163354500Y-98966500D01*
X163354500Y-98264500D01*
X165006500Y-98264500D01*
X165006500Y-98966500D01*
X165006500Y-98966500D01*
G37*
G36*
X156701499Y-97627445D02*
X156738993Y-97638819D01*
X156773557Y-97657294D01*
X156803847Y-97682153D01*
X156828706Y-97712443D01*
X156847181Y-97747007D01*
X156858555Y-97784501D01*
X156863000Y-97829638D01*
X156863000Y-98568362D01*
X156858555Y-98613499D01*
X156847181Y-98650993D01*
X156828706Y-98685557D01*
X156803847Y-98715847D01*
X156773557Y-98740706D01*
X156738993Y-98759181D01*
X156701499Y-98770555D01*
X156656362Y-98775000D01*
X156017638Y-98775000D01*
X155972501Y-98770555D01*
X155935007Y-98759181D01*
X155900443Y-98740706D01*
X155870153Y-98715847D01*
X155845294Y-98685557D01*
X155826819Y-98650993D01*
X155815445Y-98613499D01*
X155811000Y-98568362D01*
X155811000Y-97829638D01*
X155815445Y-97784501D01*
X155826819Y-97747007D01*
X155845294Y-97712443D01*
X155870153Y-97682153D01*
X155900443Y-97657294D01*
X155935007Y-97638819D01*
X155972501Y-97627445D01*
X156017638Y-97623000D01*
X156656362Y-97623000D01*
X156701499Y-97627445D01*
X156701499Y-97627445D01*
G37*
G36*
X149708500Y-98731000D02*
X148106500Y-98731000D01*
X148106500Y-96849000D01*
X149708500Y-96849000D01*
X149708500Y-98731000D01*
X149708500Y-98731000D01*
G37*
G36*
X140178500Y-98731000D02*
X138576500Y-98731000D01*
X138576500Y-96849000D01*
X140178500Y-96849000D01*
X140178500Y-98731000D01*
X140178500Y-98731000D01*
G37*
G36*
X178437740Y-98110240D02*
X172336260Y-98110240D01*
X172336260Y-92008760D01*
X178437740Y-92008760D01*
X178437740Y-98110240D01*
X178437740Y-98110240D01*
G37*
G36*
X121522442Y-96070018D02*
X121588627Y-96076537D01*
X121701853Y-96110884D01*
X121758467Y-96128057D01*
X121876223Y-96191000D01*
X121914991Y-96211722D01*
X121950729Y-96241052D01*
X122052186Y-96324314D01*
X122135448Y-96425771D01*
X122164778Y-96461509D01*
X122164779Y-96461511D01*
X122248443Y-96618033D01*
X122248443Y-96618034D01*
X122299963Y-96787873D01*
X122317359Y-96964500D01*
X122299963Y-97141127D01*
X122265616Y-97254353D01*
X122248443Y-97310967D01*
X122174348Y-97449587D01*
X122164778Y-97467491D01*
X122135448Y-97503229D01*
X122052186Y-97604686D01*
X121975861Y-97667323D01*
X121914991Y-97717278D01*
X121914989Y-97717279D01*
X121758467Y-97800943D01*
X121701853Y-97818116D01*
X121588627Y-97852463D01*
X121522443Y-97858981D01*
X121456260Y-97865500D01*
X121367740Y-97865500D01*
X121301558Y-97858982D01*
X121235373Y-97852463D01*
X121122147Y-97818116D01*
X121065533Y-97800943D01*
X120909011Y-97717279D01*
X120909009Y-97717278D01*
X120848139Y-97667323D01*
X120771814Y-97604686D01*
X120688552Y-97503229D01*
X120659222Y-97467491D01*
X120649652Y-97449587D01*
X120575557Y-97310967D01*
X120558384Y-97254353D01*
X120524037Y-97141127D01*
X120506641Y-96964500D01*
X120524037Y-96787873D01*
X120575557Y-96618034D01*
X120575557Y-96618033D01*
X120659221Y-96461511D01*
X120659222Y-96461509D01*
X120688552Y-96425771D01*
X120771814Y-96324314D01*
X120873271Y-96241052D01*
X120909009Y-96211722D01*
X120947777Y-96191000D01*
X121065533Y-96128057D01*
X121122147Y-96110884D01*
X121235373Y-96076537D01*
X121301557Y-96070019D01*
X121367740Y-96063500D01*
X121456260Y-96063500D01*
X121522442Y-96070018D01*
X121522442Y-96070018D01*
G37*
G36*
X165006500Y-97696500D02*
X163354500Y-97696500D01*
X163354500Y-96994500D01*
X165006500Y-96994500D01*
X165006500Y-97696500D01*
X165006500Y-97696500D01*
G37*
G36*
X159606500Y-97696500D02*
X157954500Y-97696500D01*
X157954500Y-96994500D01*
X159606500Y-96994500D01*
X159606500Y-97696500D01*
X159606500Y-97696500D01*
G37*
G36*
X149708500Y-96191000D02*
X148106500Y-96191000D01*
X148106500Y-94309000D01*
X149708500Y-94309000D01*
X149708500Y-96191000D01*
X149708500Y-96191000D01*
G37*
G36*
X140178500Y-96191000D02*
X138576500Y-96191000D01*
X138576500Y-94309000D01*
X140178500Y-94309000D01*
X140178500Y-96191000D01*
X140178500Y-96191000D01*
G37*
G36*
X162094500Y-95494000D02*
X152592500Y-95494000D01*
X152592500Y-84592000D01*
X162094500Y-84592000D01*
X162094500Y-95494000D01*
X162094500Y-95494000D01*
G37*
G36*
X121522442Y-93530018D02*
X121588627Y-93536537D01*
X121701853Y-93570884D01*
X121758467Y-93588057D01*
X121897087Y-93662152D01*
X121914991Y-93671722D01*
X121950729Y-93701052D01*
X122052186Y-93784314D01*
X122135448Y-93885771D01*
X122164778Y-93921509D01*
X122164779Y-93921511D01*
X122248443Y-94078033D01*
X122248443Y-94078034D01*
X122299963Y-94247873D01*
X122317359Y-94424500D01*
X122299963Y-94601127D01*
X122265616Y-94714353D01*
X122248443Y-94770967D01*
X122174348Y-94909587D01*
X122164778Y-94927491D01*
X122135448Y-94963229D01*
X122052186Y-95064686D01*
X121950729Y-95147948D01*
X121914991Y-95177278D01*
X121914989Y-95177279D01*
X121758467Y-95260943D01*
X121701853Y-95278116D01*
X121588627Y-95312463D01*
X121522443Y-95318981D01*
X121456260Y-95325500D01*
X121367740Y-95325500D01*
X121301557Y-95318981D01*
X121235373Y-95312463D01*
X121122147Y-95278116D01*
X121065533Y-95260943D01*
X120909011Y-95177279D01*
X120909009Y-95177278D01*
X120873271Y-95147948D01*
X120771814Y-95064686D01*
X120688552Y-94963229D01*
X120659222Y-94927491D01*
X120649652Y-94909587D01*
X120575557Y-94770967D01*
X120558384Y-94714353D01*
X120524037Y-94601127D01*
X120506641Y-94424500D01*
X120524037Y-94247873D01*
X120575557Y-94078034D01*
X120575557Y-94078033D01*
X120659221Y-93921511D01*
X120659222Y-93921509D01*
X120688552Y-93885771D01*
X120771814Y-93784314D01*
X120873271Y-93701052D01*
X120909009Y-93671722D01*
X120926913Y-93662152D01*
X121065533Y-93588057D01*
X121122147Y-93570884D01*
X121235373Y-93536537D01*
X121301558Y-93530018D01*
X121367740Y-93523500D01*
X121456260Y-93523500D01*
X121522442Y-93530018D01*
X121522442Y-93530018D01*
G37*
G36*
X168844500Y-93184000D02*
X164142500Y-93184000D01*
X164142500Y-91982000D01*
X168844500Y-91982000D01*
X168844500Y-93184000D01*
X168844500Y-93184000D01*
G37*
G36*
X149738499Y-92061445D02*
X149775993Y-92072819D01*
X149810557Y-92091294D01*
X149840847Y-92116153D01*
X149865706Y-92146443D01*
X149884181Y-92181007D01*
X149895555Y-92218501D01*
X149900000Y-92263638D01*
X149900000Y-92902362D01*
X149895555Y-92947499D01*
X149884181Y-92984993D01*
X149865706Y-93019557D01*
X149840847Y-93049847D01*
X149810557Y-93074706D01*
X149775993Y-93093181D01*
X149738499Y-93104555D01*
X149693362Y-93109000D01*
X148954638Y-93109000D01*
X148909501Y-93104555D01*
X148872007Y-93093181D01*
X148837443Y-93074706D01*
X148807153Y-93049847D01*
X148782294Y-93019557D01*
X148763819Y-92984993D01*
X148752445Y-92947499D01*
X148748000Y-92902362D01*
X148748000Y-92263638D01*
X148752445Y-92218501D01*
X148763819Y-92181007D01*
X148782294Y-92146443D01*
X148807153Y-92116153D01*
X148837443Y-92091294D01*
X148872007Y-92072819D01*
X148909501Y-92061445D01*
X148954638Y-92057000D01*
X149693362Y-92057000D01*
X149738499Y-92061445D01*
X149738499Y-92061445D01*
G37*
G36*
X147988499Y-92061445D02*
X148025993Y-92072819D01*
X148060557Y-92091294D01*
X148090847Y-92116153D01*
X148115706Y-92146443D01*
X148134181Y-92181007D01*
X148145555Y-92218501D01*
X148150000Y-92263638D01*
X148150000Y-92902362D01*
X148145555Y-92947499D01*
X148134181Y-92984993D01*
X148115706Y-93019557D01*
X148090847Y-93049847D01*
X148060557Y-93074706D01*
X148025993Y-93093181D01*
X147988499Y-93104555D01*
X147943362Y-93109000D01*
X147204638Y-93109000D01*
X147159501Y-93104555D01*
X147122007Y-93093181D01*
X147087443Y-93074706D01*
X147057153Y-93049847D01*
X147032294Y-93019557D01*
X147013819Y-92984993D01*
X147002445Y-92947499D01*
X146998000Y-92902362D01*
X146998000Y-92263638D01*
X147002445Y-92218501D01*
X147013819Y-92181007D01*
X147032294Y-92146443D01*
X147057153Y-92116153D01*
X147087443Y-92091294D01*
X147122007Y-92072819D01*
X147159501Y-92061445D01*
X147204638Y-92057000D01*
X147943362Y-92057000D01*
X147988499Y-92061445D01*
X147988499Y-92061445D01*
G37*
G36*
X139366499Y-91934445D02*
X139403993Y-91945819D01*
X139438557Y-91964294D01*
X139468847Y-91989153D01*
X139493706Y-92019443D01*
X139512181Y-92054007D01*
X139523555Y-92091501D01*
X139528000Y-92136638D01*
X139528000Y-92775362D01*
X139523555Y-92820499D01*
X139512181Y-92857993D01*
X139493706Y-92892557D01*
X139468847Y-92922847D01*
X139438557Y-92947706D01*
X139403993Y-92966181D01*
X139366499Y-92977555D01*
X139321362Y-92982000D01*
X138582638Y-92982000D01*
X138537501Y-92977555D01*
X138500007Y-92966181D01*
X138465443Y-92947706D01*
X138435153Y-92922847D01*
X138410294Y-92892557D01*
X138391819Y-92857993D01*
X138380445Y-92820499D01*
X138376000Y-92775362D01*
X138376000Y-92136638D01*
X138380445Y-92091501D01*
X138391819Y-92054007D01*
X138410294Y-92019443D01*
X138435153Y-91989153D01*
X138465443Y-91964294D01*
X138500007Y-91945819D01*
X138537501Y-91934445D01*
X138582638Y-91930000D01*
X139321362Y-91930000D01*
X139366499Y-91934445D01*
X139366499Y-91934445D01*
G37*
G36*
X141116499Y-91934445D02*
X141153993Y-91945819D01*
X141188557Y-91964294D01*
X141218847Y-91989153D01*
X141243706Y-92019443D01*
X141262181Y-92054007D01*
X141273555Y-92091501D01*
X141278000Y-92136638D01*
X141278000Y-92775362D01*
X141273555Y-92820499D01*
X141262181Y-92857993D01*
X141243706Y-92892557D01*
X141218847Y-92922847D01*
X141188557Y-92947706D01*
X141153993Y-92966181D01*
X141116499Y-92977555D01*
X141071362Y-92982000D01*
X140332638Y-92982000D01*
X140287501Y-92977555D01*
X140250007Y-92966181D01*
X140215443Y-92947706D01*
X140185153Y-92922847D01*
X140160294Y-92892557D01*
X140141819Y-92857993D01*
X140130445Y-92820499D01*
X140126000Y-92775362D01*
X140126000Y-92136638D01*
X140130445Y-92091501D01*
X140141819Y-92054007D01*
X140160294Y-92019443D01*
X140185153Y-91989153D01*
X140215443Y-91964294D01*
X140250007Y-91945819D01*
X140287501Y-91934445D01*
X140332638Y-91930000D01*
X141071362Y-91930000D01*
X141116499Y-91934445D01*
X141116499Y-91934445D01*
G37*
G36*
X122313000Y-92785500D02*
X120511000Y-92785500D01*
X120511000Y-90983500D01*
X122313000Y-90983500D01*
X122313000Y-92785500D01*
X122313000Y-92785500D01*
G37*
G36*
X140001499Y-89521445D02*
X140038993Y-89532819D01*
X140073557Y-89551294D01*
X140103847Y-89576153D01*
X140128706Y-89606443D01*
X140147181Y-89641007D01*
X140158555Y-89678501D01*
X140163000Y-89723638D01*
X140163000Y-90362362D01*
X140158555Y-90407499D01*
X140147181Y-90444993D01*
X140128706Y-90479557D01*
X140103847Y-90509847D01*
X140073557Y-90534706D01*
X140038993Y-90553181D01*
X140001499Y-90564555D01*
X139956362Y-90569000D01*
X139217638Y-90569000D01*
X139172501Y-90564555D01*
X139135007Y-90553181D01*
X139100443Y-90534706D01*
X139070153Y-90509847D01*
X139045294Y-90479557D01*
X139026819Y-90444993D01*
X139015445Y-90407499D01*
X139011000Y-90362362D01*
X139011000Y-89723638D01*
X139015445Y-89678501D01*
X139026819Y-89641007D01*
X139045294Y-89606443D01*
X139070153Y-89576153D01*
X139100443Y-89551294D01*
X139135007Y-89532819D01*
X139172501Y-89521445D01*
X139217638Y-89517000D01*
X139956362Y-89517000D01*
X140001499Y-89521445D01*
X140001499Y-89521445D01*
G37*
G36*
X141751499Y-89521445D02*
X141788993Y-89532819D01*
X141823557Y-89551294D01*
X141853847Y-89576153D01*
X141878706Y-89606443D01*
X141897181Y-89641007D01*
X141908555Y-89678501D01*
X141913000Y-89723638D01*
X141913000Y-90362362D01*
X141908555Y-90407499D01*
X141897181Y-90444993D01*
X141878706Y-90479557D01*
X141853847Y-90509847D01*
X141823557Y-90534706D01*
X141788993Y-90553181D01*
X141751499Y-90564555D01*
X141706362Y-90569000D01*
X140967638Y-90569000D01*
X140922501Y-90564555D01*
X140885007Y-90553181D01*
X140850443Y-90534706D01*
X140820153Y-90509847D01*
X140795294Y-90479557D01*
X140776819Y-90444993D01*
X140765445Y-90407499D01*
X140761000Y-90362362D01*
X140761000Y-89723638D01*
X140765445Y-89678501D01*
X140776819Y-89641007D01*
X140795294Y-89606443D01*
X140820153Y-89576153D01*
X140850443Y-89551294D01*
X140885007Y-89532819D01*
X140922501Y-89521445D01*
X140967638Y-89517000D01*
X141706362Y-89517000D01*
X141751499Y-89521445D01*
X141751499Y-89521445D01*
G37*
G36*
X134744999Y-89394445D02*
X134782493Y-89405819D01*
X134817057Y-89424294D01*
X134847347Y-89449153D01*
X134872206Y-89479443D01*
X134890681Y-89514007D01*
X134902055Y-89551501D01*
X134906500Y-89596638D01*
X134906500Y-90235362D01*
X134902055Y-90280499D01*
X134890681Y-90317993D01*
X134872206Y-90352557D01*
X134847347Y-90382847D01*
X134817057Y-90407706D01*
X134782493Y-90426181D01*
X134744999Y-90437555D01*
X134699862Y-90442000D01*
X133961138Y-90442000D01*
X133916001Y-90437555D01*
X133878507Y-90426181D01*
X133843943Y-90407706D01*
X133813653Y-90382847D01*
X133788794Y-90352557D01*
X133770319Y-90317993D01*
X133758945Y-90280499D01*
X133754500Y-90235362D01*
X133754500Y-89596638D01*
X133758945Y-89551501D01*
X133770319Y-89514007D01*
X133788794Y-89479443D01*
X133813653Y-89449153D01*
X133843943Y-89424294D01*
X133878507Y-89405819D01*
X133916001Y-89394445D01*
X133961138Y-89390000D01*
X134699862Y-89390000D01*
X134744999Y-89394445D01*
X134744999Y-89394445D01*
G37*
G36*
X136494999Y-89394445D02*
X136532493Y-89405819D01*
X136567057Y-89424294D01*
X136597347Y-89449153D01*
X136622206Y-89479443D01*
X136640681Y-89514007D01*
X136652055Y-89551501D01*
X136656500Y-89596638D01*
X136656500Y-90235362D01*
X136652055Y-90280499D01*
X136640681Y-90317993D01*
X136622206Y-90352557D01*
X136597347Y-90382847D01*
X136567057Y-90407706D01*
X136532493Y-90426181D01*
X136494999Y-90437555D01*
X136449862Y-90442000D01*
X135711138Y-90442000D01*
X135666001Y-90437555D01*
X135628507Y-90426181D01*
X135593943Y-90407706D01*
X135563653Y-90382847D01*
X135538794Y-90352557D01*
X135520319Y-90317993D01*
X135508945Y-90280499D01*
X135504500Y-90235362D01*
X135504500Y-89596638D01*
X135508945Y-89551501D01*
X135520319Y-89514007D01*
X135538794Y-89479443D01*
X135563653Y-89449153D01*
X135593943Y-89424294D01*
X135628507Y-89405819D01*
X135666001Y-89394445D01*
X135711138Y-89390000D01*
X136449862Y-89390000D01*
X136494999Y-89394445D01*
X136494999Y-89394445D01*
G37*
G36*
X168844500Y-88104000D02*
X164142500Y-88104000D01*
X164142500Y-86902000D01*
X168844500Y-86902000D01*
X168844500Y-88104000D01*
X168844500Y-88104000D01*
G37*
G36*
X141270942Y-86037018D02*
X141337127Y-86043537D01*
X141450353Y-86077884D01*
X141506967Y-86095057D01*
X141645587Y-86169152D01*
X141663491Y-86178722D01*
X141699229Y-86208052D01*
X141800686Y-86291314D01*
X141883948Y-86392771D01*
X141913278Y-86428509D01*
X141913279Y-86428511D01*
X141996943Y-86585033D01*
X141996943Y-86585034D01*
X142048463Y-86754873D01*
X142065859Y-86931500D01*
X142048463Y-87108127D01*
X142014116Y-87221353D01*
X141996943Y-87277967D01*
X141922848Y-87416587D01*
X141913278Y-87434491D01*
X141883948Y-87470229D01*
X141800686Y-87571686D01*
X141699229Y-87654948D01*
X141663491Y-87684278D01*
X141663489Y-87684279D01*
X141506967Y-87767943D01*
X141450353Y-87785116D01*
X141337127Y-87819463D01*
X141270942Y-87825982D01*
X141204760Y-87832500D01*
X141116240Y-87832500D01*
X141050058Y-87825982D01*
X140983873Y-87819463D01*
X140870647Y-87785116D01*
X140814033Y-87767943D01*
X140657511Y-87684279D01*
X140657509Y-87684278D01*
X140621771Y-87654948D01*
X140520314Y-87571686D01*
X140437052Y-87470229D01*
X140407722Y-87434491D01*
X140398152Y-87416587D01*
X140324057Y-87277967D01*
X140306884Y-87221353D01*
X140272537Y-87108127D01*
X140255141Y-86931500D01*
X140272537Y-86754873D01*
X140324057Y-86585034D01*
X140324057Y-86585033D01*
X140407721Y-86428511D01*
X140407722Y-86428509D01*
X140437052Y-86392771D01*
X140520314Y-86291314D01*
X140621771Y-86208052D01*
X140657509Y-86178722D01*
X140675413Y-86169152D01*
X140814033Y-86095057D01*
X140870647Y-86077884D01*
X140983873Y-86043537D01*
X141050058Y-86037018D01*
X141116240Y-86030500D01*
X141204760Y-86030500D01*
X141270942Y-86037018D01*
X141270942Y-86037018D01*
G37*
G36*
X138730942Y-86037018D02*
X138797127Y-86043537D01*
X138910353Y-86077884D01*
X138966967Y-86095057D01*
X139105587Y-86169152D01*
X139123491Y-86178722D01*
X139159229Y-86208052D01*
X139260686Y-86291314D01*
X139343948Y-86392771D01*
X139373278Y-86428509D01*
X139373279Y-86428511D01*
X139456943Y-86585033D01*
X139456943Y-86585034D01*
X139508463Y-86754873D01*
X139525859Y-86931500D01*
X139508463Y-87108127D01*
X139474116Y-87221353D01*
X139456943Y-87277967D01*
X139382848Y-87416587D01*
X139373278Y-87434491D01*
X139343948Y-87470229D01*
X139260686Y-87571686D01*
X139159229Y-87654948D01*
X139123491Y-87684278D01*
X139123489Y-87684279D01*
X138966967Y-87767943D01*
X138910353Y-87785116D01*
X138797127Y-87819463D01*
X138730942Y-87825982D01*
X138664760Y-87832500D01*
X138576240Y-87832500D01*
X138510058Y-87825982D01*
X138443873Y-87819463D01*
X138330647Y-87785116D01*
X138274033Y-87767943D01*
X138117511Y-87684279D01*
X138117509Y-87684278D01*
X138081771Y-87654948D01*
X137980314Y-87571686D01*
X137897052Y-87470229D01*
X137867722Y-87434491D01*
X137858152Y-87416587D01*
X137784057Y-87277967D01*
X137766884Y-87221353D01*
X137732537Y-87108127D01*
X137715141Y-86931500D01*
X137732537Y-86754873D01*
X137784057Y-86585034D01*
X137784057Y-86585033D01*
X137867721Y-86428511D01*
X137867722Y-86428509D01*
X137897052Y-86392771D01*
X137980314Y-86291314D01*
X138081771Y-86208052D01*
X138117509Y-86178722D01*
X138135413Y-86169152D01*
X138274033Y-86095057D01*
X138330647Y-86077884D01*
X138443873Y-86043537D01*
X138510058Y-86037018D01*
X138576240Y-86030500D01*
X138664760Y-86030500D01*
X138730942Y-86037018D01*
X138730942Y-86037018D01*
G37*
G36*
X136981500Y-87832500D02*
X135179500Y-87832500D01*
X135179500Y-86030500D01*
X136981500Y-86030500D01*
X136981500Y-87832500D01*
X136981500Y-87832500D01*
G37*
M02*
