G04 #@! TF.GenerationSoftware,KiCad,Pcbnew,5.0.0+dfsg1-2*
G04 #@! TF.CreationDate,2018-11-18T20:59:02-06:00*
G04 #@! TF.ProjectId,dimmer-2ch,64696D6D65722D3263682E6B69636164,rev?*
G04 #@! TF.SameCoordinates,Original*
G04 #@! TF.FileFunction,Soldermask,Bot*
G04 #@! TF.FilePolarity,Negative*
%FSLAX46Y46*%
G04 Gerber Fmt 4.6, Leading zero omitted, Abs format (unit mm)*
G04 Created by KiCad (PCBNEW 5.0.0+dfsg1-2) date Sun Nov 18 20:59:02 2018*
%MOMM*%
%LPD*%
G01*
G04 APERTURE LIST*
%ADD10C,0.100000*%
G04 APERTURE END LIST*
D10*
G36*
X121585942Y-113469018D02*
X121652127Y-113475537D01*
X121765353Y-113509884D01*
X121821967Y-113527057D01*
X121960587Y-113601152D01*
X121978491Y-113610722D01*
X122014229Y-113640052D01*
X122115686Y-113723314D01*
X122198948Y-113824771D01*
X122228278Y-113860509D01*
X122228279Y-113860511D01*
X122311943Y-114017033D01*
X122311943Y-114017034D01*
X122363463Y-114186873D01*
X122380859Y-114363500D01*
X122363463Y-114540127D01*
X122329116Y-114653353D01*
X122311943Y-114709967D01*
X122237848Y-114848587D01*
X122228278Y-114866491D01*
X122198948Y-114902229D01*
X122115686Y-115003686D01*
X122014229Y-115086948D01*
X121978491Y-115116278D01*
X121978489Y-115116279D01*
X121821967Y-115199943D01*
X121765353Y-115217116D01*
X121652127Y-115251463D01*
X121585943Y-115257981D01*
X121519760Y-115264500D01*
X121431240Y-115264500D01*
X121365057Y-115257981D01*
X121298873Y-115251463D01*
X121185647Y-115217116D01*
X121129033Y-115199943D01*
X120972511Y-115116279D01*
X120972509Y-115116278D01*
X120936771Y-115086948D01*
X120835314Y-115003686D01*
X120752052Y-114902229D01*
X120722722Y-114866491D01*
X120713152Y-114848587D01*
X120639057Y-114709967D01*
X120621884Y-114653353D01*
X120587537Y-114540127D01*
X120570141Y-114363500D01*
X120587537Y-114186873D01*
X120639057Y-114017034D01*
X120639057Y-114017033D01*
X120722721Y-113860511D01*
X120722722Y-113860509D01*
X120752052Y-113824771D01*
X120835314Y-113723314D01*
X120936771Y-113640052D01*
X120972509Y-113610722D01*
X120990413Y-113601152D01*
X121129033Y-113527057D01*
X121185647Y-113509884D01*
X121298873Y-113475537D01*
X121365058Y-113469018D01*
X121431240Y-113462500D01*
X121519760Y-113462500D01*
X121585942Y-113469018D01*
X121585942Y-113469018D01*
G37*
G36*
X175982170Y-107307379D02*
X176276868Y-107365998D01*
X176832067Y-107595969D01*
X177328363Y-107927584D01*
X177331736Y-107929838D01*
X177756662Y-108354764D01*
X177756664Y-108354767D01*
X178090531Y-108854433D01*
X178090531Y-108854434D01*
X178320502Y-109409633D01*
X178422754Y-109923685D01*
X178437740Y-109999028D01*
X178437740Y-110599972D01*
X178320502Y-111189368D01*
X178090531Y-111744567D01*
X177919772Y-112000125D01*
X177756662Y-112244236D01*
X177331736Y-112669162D01*
X177331733Y-112669164D01*
X176832067Y-113003031D01*
X176276868Y-113233002D01*
X175982170Y-113291621D01*
X175687473Y-113350240D01*
X175086527Y-113350240D01*
X174791830Y-113291621D01*
X174497132Y-113233002D01*
X173941933Y-113003031D01*
X173442267Y-112669164D01*
X173442264Y-112669162D01*
X173017338Y-112244236D01*
X172854228Y-112000125D01*
X172683469Y-111744567D01*
X172453498Y-111189368D01*
X172336260Y-110599972D01*
X172336260Y-109999028D01*
X172351247Y-109923685D01*
X172453498Y-109409633D01*
X172683469Y-108854434D01*
X172683469Y-108854433D01*
X173017336Y-108354767D01*
X173017338Y-108354764D01*
X173442264Y-107929838D01*
X173445637Y-107927584D01*
X173941933Y-107595969D01*
X174497132Y-107365998D01*
X174791830Y-107307379D01*
X175086527Y-107248760D01*
X175687473Y-107248760D01*
X175982170Y-107307379D01*
X175982170Y-107307379D01*
G37*
G36*
X121585943Y-110929019D02*
X121652127Y-110935537D01*
X121765353Y-110969884D01*
X121821967Y-110987057D01*
X121960587Y-111061152D01*
X121978491Y-111070722D01*
X122014229Y-111100052D01*
X122115686Y-111183314D01*
X122198948Y-111284771D01*
X122228278Y-111320509D01*
X122228279Y-111320511D01*
X122311943Y-111477033D01*
X122311943Y-111477034D01*
X122363463Y-111646873D01*
X122380859Y-111823500D01*
X122363463Y-112000127D01*
X122329116Y-112113353D01*
X122311943Y-112169967D01*
X122272246Y-112244233D01*
X122228278Y-112326491D01*
X122198948Y-112362229D01*
X122115686Y-112463686D01*
X122014229Y-112546948D01*
X121978491Y-112576278D01*
X121978489Y-112576279D01*
X121821967Y-112659943D01*
X121765353Y-112677116D01*
X121652127Y-112711463D01*
X121585943Y-112717981D01*
X121519760Y-112724500D01*
X121431240Y-112724500D01*
X121365057Y-112717981D01*
X121298873Y-112711463D01*
X121185647Y-112677116D01*
X121129033Y-112659943D01*
X120972511Y-112576279D01*
X120972509Y-112576278D01*
X120936771Y-112546948D01*
X120835314Y-112463686D01*
X120752052Y-112362229D01*
X120722722Y-112326491D01*
X120678754Y-112244233D01*
X120639057Y-112169967D01*
X120621884Y-112113353D01*
X120587537Y-112000127D01*
X120570141Y-111823500D01*
X120587537Y-111646873D01*
X120639057Y-111477034D01*
X120639057Y-111477033D01*
X120722721Y-111320511D01*
X120722722Y-111320509D01*
X120752052Y-111284771D01*
X120835314Y-111183314D01*
X120936771Y-111100052D01*
X120972509Y-111070722D01*
X120990413Y-111061152D01*
X121129033Y-110987057D01*
X121185647Y-110969884D01*
X121298873Y-110935537D01*
X121365057Y-110929019D01*
X121431240Y-110922500D01*
X121519760Y-110922500D01*
X121585943Y-110929019D01*
X121585943Y-110929019D01*
G37*
G36*
X121585943Y-108389019D02*
X121652127Y-108395537D01*
X121765353Y-108429884D01*
X121821967Y-108447057D01*
X121960587Y-108521152D01*
X121978491Y-108530722D01*
X122014229Y-108560052D01*
X122115686Y-108643314D01*
X122198948Y-108744771D01*
X122228278Y-108780509D01*
X122228279Y-108780511D01*
X122311943Y-108937033D01*
X122311943Y-108937034D01*
X122363463Y-109106873D01*
X122380859Y-109283500D01*
X122363463Y-109460127D01*
X122329116Y-109573353D01*
X122311943Y-109629967D01*
X122237848Y-109768587D01*
X122228278Y-109786491D01*
X122198948Y-109822229D01*
X122115686Y-109923686D01*
X122023881Y-109999027D01*
X121978491Y-110036278D01*
X121978489Y-110036279D01*
X121821967Y-110119943D01*
X121765353Y-110137116D01*
X121652127Y-110171463D01*
X121585942Y-110177982D01*
X121519760Y-110184500D01*
X121431240Y-110184500D01*
X121365058Y-110177982D01*
X121298873Y-110171463D01*
X121185647Y-110137116D01*
X121129033Y-110119943D01*
X120972511Y-110036279D01*
X120972509Y-110036278D01*
X120927119Y-109999027D01*
X120835314Y-109923686D01*
X120752052Y-109822229D01*
X120722722Y-109786491D01*
X120713152Y-109768587D01*
X120639057Y-109629967D01*
X120621884Y-109573353D01*
X120587537Y-109460127D01*
X120570141Y-109283500D01*
X120587537Y-109106873D01*
X120639057Y-108937034D01*
X120639057Y-108937033D01*
X120722721Y-108780511D01*
X120722722Y-108780509D01*
X120752052Y-108744771D01*
X120835314Y-108643314D01*
X120936771Y-108560052D01*
X120972509Y-108530722D01*
X120990413Y-108521152D01*
X121129033Y-108447057D01*
X121185647Y-108429884D01*
X121298873Y-108395537D01*
X121365057Y-108389019D01*
X121431240Y-108382500D01*
X121519760Y-108382500D01*
X121585943Y-108389019D01*
X121585943Y-108389019D01*
G37*
G36*
X122376500Y-107644500D02*
X120574500Y-107644500D01*
X120574500Y-105842500D01*
X122376500Y-105842500D01*
X122376500Y-107644500D01*
X122376500Y-107644500D01*
G37*
G36*
X175950729Y-99681125D02*
X176276868Y-99745998D01*
X176832067Y-99975969D01*
X177253076Y-100257279D01*
X177331736Y-100309838D01*
X177756662Y-100734764D01*
X177756664Y-100734767D01*
X178090531Y-101234433D01*
X178320502Y-101789632D01*
X178437740Y-102379028D01*
X178437740Y-102979972D01*
X178320502Y-103569368D01*
X178090531Y-104124567D01*
X177758916Y-104620863D01*
X177756662Y-104624236D01*
X177331736Y-105049162D01*
X177331733Y-105049164D01*
X176832067Y-105383031D01*
X176276868Y-105613002D01*
X175982170Y-105671621D01*
X175687473Y-105730240D01*
X175086527Y-105730240D01*
X174791830Y-105671621D01*
X174497132Y-105613002D01*
X173941933Y-105383031D01*
X173442267Y-105049164D01*
X173442264Y-105049162D01*
X173017338Y-104624236D01*
X173015084Y-104620863D01*
X172683469Y-104124567D01*
X172453498Y-103569368D01*
X172336260Y-102979972D01*
X172336260Y-102379028D01*
X172453498Y-101789632D01*
X172683469Y-101234433D01*
X173017336Y-100734767D01*
X173017338Y-100734764D01*
X173442264Y-100309838D01*
X173520924Y-100257279D01*
X173941933Y-99975969D01*
X174497132Y-99745998D01*
X174823271Y-99681125D01*
X175086527Y-99628760D01*
X175687473Y-99628760D01*
X175950729Y-99681125D01*
X175950729Y-99681125D01*
G37*
G36*
X121522443Y-101150019D02*
X121588627Y-101156537D01*
X121701853Y-101190884D01*
X121758467Y-101208057D01*
X121807812Y-101234433D01*
X121914991Y-101291722D01*
X121950729Y-101321052D01*
X122052186Y-101404314D01*
X122135448Y-101505771D01*
X122164778Y-101541509D01*
X122164779Y-101541511D01*
X122248443Y-101698033D01*
X122248443Y-101698034D01*
X122299963Y-101867873D01*
X122317359Y-102044500D01*
X122299963Y-102221127D01*
X122265616Y-102334353D01*
X122248443Y-102390967D01*
X122174348Y-102529587D01*
X122164778Y-102547491D01*
X122135448Y-102583229D01*
X122052186Y-102684686D01*
X121950729Y-102767948D01*
X121914991Y-102797278D01*
X121914989Y-102797279D01*
X121758467Y-102880943D01*
X121701853Y-102898116D01*
X121588627Y-102932463D01*
X121522442Y-102938982D01*
X121456260Y-102945500D01*
X121367740Y-102945500D01*
X121301558Y-102938982D01*
X121235373Y-102932463D01*
X121122147Y-102898116D01*
X121065533Y-102880943D01*
X120909011Y-102797279D01*
X120909009Y-102797278D01*
X120873271Y-102767948D01*
X120771814Y-102684686D01*
X120688552Y-102583229D01*
X120659222Y-102547491D01*
X120649652Y-102529587D01*
X120575557Y-102390967D01*
X120558384Y-102334353D01*
X120524037Y-102221127D01*
X120506641Y-102044500D01*
X120524037Y-101867873D01*
X120575557Y-101698034D01*
X120575557Y-101698033D01*
X120659221Y-101541511D01*
X120659222Y-101541509D01*
X120688552Y-101505771D01*
X120771814Y-101404314D01*
X120873271Y-101321052D01*
X120909009Y-101291722D01*
X121016188Y-101234433D01*
X121065533Y-101208057D01*
X121122147Y-101190884D01*
X121235373Y-101156537D01*
X121301557Y-101150019D01*
X121367740Y-101143500D01*
X121456260Y-101143500D01*
X121522443Y-101150019D01*
X121522443Y-101150019D01*
G37*
G36*
X121522442Y-98610018D02*
X121588627Y-98616537D01*
X121701853Y-98650884D01*
X121758467Y-98668057D01*
X121897087Y-98742152D01*
X121914991Y-98751722D01*
X121950729Y-98781052D01*
X122052186Y-98864314D01*
X122135448Y-98965771D01*
X122164778Y-99001509D01*
X122164779Y-99001511D01*
X122248443Y-99158033D01*
X122248443Y-99158034D01*
X122299963Y-99327873D01*
X122317359Y-99504500D01*
X122299963Y-99681127D01*
X122265616Y-99794353D01*
X122248443Y-99850967D01*
X122181627Y-99975969D01*
X122164778Y-100007491D01*
X122135448Y-100043229D01*
X122052186Y-100144686D01*
X121950729Y-100227948D01*
X121914991Y-100257278D01*
X121914989Y-100257279D01*
X121758467Y-100340943D01*
X121701853Y-100358116D01*
X121588627Y-100392463D01*
X121522442Y-100398982D01*
X121456260Y-100405500D01*
X121367740Y-100405500D01*
X121301558Y-100398982D01*
X121235373Y-100392463D01*
X121122147Y-100358116D01*
X121065533Y-100340943D01*
X120909011Y-100257279D01*
X120909009Y-100257278D01*
X120873271Y-100227948D01*
X120771814Y-100144686D01*
X120688552Y-100043229D01*
X120659222Y-100007491D01*
X120642373Y-99975969D01*
X120575557Y-99850967D01*
X120558384Y-99794353D01*
X120524037Y-99681127D01*
X120506641Y-99504500D01*
X120524037Y-99327873D01*
X120575557Y-99158034D01*
X120575557Y-99158033D01*
X120659221Y-99001511D01*
X120659222Y-99001509D01*
X120688552Y-98965771D01*
X120771814Y-98864314D01*
X120873271Y-98781052D01*
X120909009Y-98751722D01*
X120926913Y-98742152D01*
X121065533Y-98668057D01*
X121122147Y-98650884D01*
X121235373Y-98616537D01*
X121301558Y-98610018D01*
X121367740Y-98603500D01*
X121456260Y-98603500D01*
X121522442Y-98610018D01*
X121522442Y-98610018D01*
G37*
G36*
X178437740Y-98110240D02*
X172336260Y-98110240D01*
X172336260Y-92008760D01*
X178437740Y-92008760D01*
X178437740Y-98110240D01*
X178437740Y-98110240D01*
G37*
G36*
X121522442Y-96070018D02*
X121588627Y-96076537D01*
X121701853Y-96110884D01*
X121758467Y-96128057D01*
X121897087Y-96202152D01*
X121914991Y-96211722D01*
X121950729Y-96241052D01*
X122052186Y-96324314D01*
X122135448Y-96425771D01*
X122164778Y-96461509D01*
X122164779Y-96461511D01*
X122248443Y-96618033D01*
X122248443Y-96618034D01*
X122299963Y-96787873D01*
X122317359Y-96964500D01*
X122299963Y-97141127D01*
X122265616Y-97254353D01*
X122248443Y-97310967D01*
X122174348Y-97449587D01*
X122164778Y-97467491D01*
X122135448Y-97503229D01*
X122052186Y-97604686D01*
X121950729Y-97687948D01*
X121914991Y-97717278D01*
X121914989Y-97717279D01*
X121758467Y-97800943D01*
X121701853Y-97818116D01*
X121588627Y-97852463D01*
X121522443Y-97858981D01*
X121456260Y-97865500D01*
X121367740Y-97865500D01*
X121301558Y-97858982D01*
X121235373Y-97852463D01*
X121122147Y-97818116D01*
X121065533Y-97800943D01*
X120909011Y-97717279D01*
X120909009Y-97717278D01*
X120873271Y-97687948D01*
X120771814Y-97604686D01*
X120688552Y-97503229D01*
X120659222Y-97467491D01*
X120649652Y-97449587D01*
X120575557Y-97310967D01*
X120558384Y-97254353D01*
X120524037Y-97141127D01*
X120506641Y-96964500D01*
X120524037Y-96787873D01*
X120575557Y-96618034D01*
X120575557Y-96618033D01*
X120659221Y-96461511D01*
X120659222Y-96461509D01*
X120688552Y-96425771D01*
X120771814Y-96324314D01*
X120873271Y-96241052D01*
X120909009Y-96211722D01*
X120926913Y-96202152D01*
X121065533Y-96128057D01*
X121122147Y-96110884D01*
X121235373Y-96076537D01*
X121301557Y-96070019D01*
X121367740Y-96063500D01*
X121456260Y-96063500D01*
X121522442Y-96070018D01*
X121522442Y-96070018D01*
G37*
G36*
X121522442Y-93530018D02*
X121588627Y-93536537D01*
X121701853Y-93570884D01*
X121758467Y-93588057D01*
X121897087Y-93662152D01*
X121914991Y-93671722D01*
X121950729Y-93701052D01*
X122052186Y-93784314D01*
X122135448Y-93885771D01*
X122164778Y-93921509D01*
X122164779Y-93921511D01*
X122248443Y-94078033D01*
X122248443Y-94078034D01*
X122299963Y-94247873D01*
X122317359Y-94424500D01*
X122299963Y-94601127D01*
X122265616Y-94714353D01*
X122248443Y-94770967D01*
X122174348Y-94909587D01*
X122164778Y-94927491D01*
X122135448Y-94963229D01*
X122052186Y-95064686D01*
X121950729Y-95147948D01*
X121914991Y-95177278D01*
X121914989Y-95177279D01*
X121758467Y-95260943D01*
X121701853Y-95278116D01*
X121588627Y-95312463D01*
X121522443Y-95318981D01*
X121456260Y-95325500D01*
X121367740Y-95325500D01*
X121301557Y-95318981D01*
X121235373Y-95312463D01*
X121122147Y-95278116D01*
X121065533Y-95260943D01*
X120909011Y-95177279D01*
X120909009Y-95177278D01*
X120873271Y-95147948D01*
X120771814Y-95064686D01*
X120688552Y-94963229D01*
X120659222Y-94927491D01*
X120649652Y-94909587D01*
X120575557Y-94770967D01*
X120558384Y-94714353D01*
X120524037Y-94601127D01*
X120506641Y-94424500D01*
X120524037Y-94247873D01*
X120575557Y-94078034D01*
X120575557Y-94078033D01*
X120659221Y-93921511D01*
X120659222Y-93921509D01*
X120688552Y-93885771D01*
X120771814Y-93784314D01*
X120873271Y-93701052D01*
X120909009Y-93671722D01*
X120926913Y-93662152D01*
X121065533Y-93588057D01*
X121122147Y-93570884D01*
X121235373Y-93536537D01*
X121301558Y-93530018D01*
X121367740Y-93523500D01*
X121456260Y-93523500D01*
X121522442Y-93530018D01*
X121522442Y-93530018D01*
G37*
G36*
X122313000Y-92785500D02*
X120511000Y-92785500D01*
X120511000Y-90983500D01*
X122313000Y-90983500D01*
X122313000Y-92785500D01*
X122313000Y-92785500D01*
G37*
G36*
X138730942Y-86037018D02*
X138797127Y-86043537D01*
X138910353Y-86077884D01*
X138966967Y-86095057D01*
X139105587Y-86169152D01*
X139123491Y-86178722D01*
X139159229Y-86208052D01*
X139260686Y-86291314D01*
X139343948Y-86392771D01*
X139373278Y-86428509D01*
X139373279Y-86428511D01*
X139456943Y-86585033D01*
X139456943Y-86585034D01*
X139508463Y-86754873D01*
X139525859Y-86931500D01*
X139508463Y-87108127D01*
X139474116Y-87221353D01*
X139456943Y-87277967D01*
X139382848Y-87416587D01*
X139373278Y-87434491D01*
X139343948Y-87470229D01*
X139260686Y-87571686D01*
X139159229Y-87654948D01*
X139123491Y-87684278D01*
X139123489Y-87684279D01*
X138966967Y-87767943D01*
X138910353Y-87785116D01*
X138797127Y-87819463D01*
X138730942Y-87825982D01*
X138664760Y-87832500D01*
X138576240Y-87832500D01*
X138510058Y-87825982D01*
X138443873Y-87819463D01*
X138330647Y-87785116D01*
X138274033Y-87767943D01*
X138117511Y-87684279D01*
X138117509Y-87684278D01*
X138081771Y-87654948D01*
X137980314Y-87571686D01*
X137897052Y-87470229D01*
X137867722Y-87434491D01*
X137858152Y-87416587D01*
X137784057Y-87277967D01*
X137766884Y-87221353D01*
X137732537Y-87108127D01*
X137715141Y-86931500D01*
X137732537Y-86754873D01*
X137784057Y-86585034D01*
X137784057Y-86585033D01*
X137867721Y-86428511D01*
X137867722Y-86428509D01*
X137897052Y-86392771D01*
X137980314Y-86291314D01*
X138081771Y-86208052D01*
X138117509Y-86178722D01*
X138135413Y-86169152D01*
X138274033Y-86095057D01*
X138330647Y-86077884D01*
X138443873Y-86043537D01*
X138510058Y-86037018D01*
X138576240Y-86030500D01*
X138664760Y-86030500D01*
X138730942Y-86037018D01*
X138730942Y-86037018D01*
G37*
G36*
X141270942Y-86037018D02*
X141337127Y-86043537D01*
X141450353Y-86077884D01*
X141506967Y-86095057D01*
X141645587Y-86169152D01*
X141663491Y-86178722D01*
X141699229Y-86208052D01*
X141800686Y-86291314D01*
X141883948Y-86392771D01*
X141913278Y-86428509D01*
X141913279Y-86428511D01*
X141996943Y-86585033D01*
X141996943Y-86585034D01*
X142048463Y-86754873D01*
X142065859Y-86931500D01*
X142048463Y-87108127D01*
X142014116Y-87221353D01*
X141996943Y-87277967D01*
X141922848Y-87416587D01*
X141913278Y-87434491D01*
X141883948Y-87470229D01*
X141800686Y-87571686D01*
X141699229Y-87654948D01*
X141663491Y-87684278D01*
X141663489Y-87684279D01*
X141506967Y-87767943D01*
X141450353Y-87785116D01*
X141337127Y-87819463D01*
X141270942Y-87825982D01*
X141204760Y-87832500D01*
X141116240Y-87832500D01*
X141050058Y-87825982D01*
X140983873Y-87819463D01*
X140870647Y-87785116D01*
X140814033Y-87767943D01*
X140657511Y-87684279D01*
X140657509Y-87684278D01*
X140621771Y-87654948D01*
X140520314Y-87571686D01*
X140437052Y-87470229D01*
X140407722Y-87434491D01*
X140398152Y-87416587D01*
X140324057Y-87277967D01*
X140306884Y-87221353D01*
X140272537Y-87108127D01*
X140255141Y-86931500D01*
X140272537Y-86754873D01*
X140324057Y-86585034D01*
X140324057Y-86585033D01*
X140407721Y-86428511D01*
X140407722Y-86428509D01*
X140437052Y-86392771D01*
X140520314Y-86291314D01*
X140621771Y-86208052D01*
X140657509Y-86178722D01*
X140675413Y-86169152D01*
X140814033Y-86095057D01*
X140870647Y-86077884D01*
X140983873Y-86043537D01*
X141050058Y-86037018D01*
X141116240Y-86030500D01*
X141204760Y-86030500D01*
X141270942Y-86037018D01*
X141270942Y-86037018D01*
G37*
G36*
X136981500Y-87832500D02*
X135179500Y-87832500D01*
X135179500Y-86030500D01*
X136981500Y-86030500D01*
X136981500Y-87832500D01*
X136981500Y-87832500D01*
G37*
M02*
