M48
;DRILL file {KiCad 5.0.0+dfsg1-2} date Sun Nov 18 20:59:00 2018
;FORMAT={-:-/ absolute / inch / decimal}
FMAT,2
INCH,TZ
T1C0.0157
T2C0.0394
T3C0.0866
T4C0.0984
%
G90
G05
M72
T1
X5.075Y-4.2125
X5.235Y-4.54
X5.2775Y-3.76
X5.5175Y-4.4725
X5.545Y-3.85
X5.5725Y-4.195
X5.6125Y-4.105
X5.6325Y-4.1825
X5.9025Y-4.685
X5.9225Y-4.03
X5.925Y-4.5775
X5.96Y-3.6425
X6.03Y-4.19
X6.065Y-4.2225
X6.2204Y-4.035
X6.4625Y-3.5225
X6.5025Y-4.5275
T2
X6.3925Y-4.26
X6.395Y-3.9625
X6.48Y-4.3325
X6.5325Y-4.015
X6.545Y-4.735
X6.555Y-3.5825
X6.6875Y-4.66
X6.6975Y-3.625
X5.3575Y-3.4225
X5.4575Y-3.4225
X5.5575Y-3.4225
X4.78Y-3.6175
X4.78Y-3.7175
X4.78Y-3.8175
X4.78Y-3.9175
X4.78Y-4.0175
X4.7825Y-4.2025
X4.7825Y-4.3025
X4.7825Y-4.4025
X4.7825Y-4.5025
T3
X4.94Y-3.42
X4.94Y-4.68
X6.91Y-3.42
X6.91Y-4.68
T4
X6.905Y-3.7425
X6.905Y-4.0425
X6.905Y-4.3425
T0
M30
